<?xml version="1.0" encoding="UTF-8"?>
<svg id="_レイヤー_1" data-name="レイヤー 1" xmlns="http://www.w3.org/2000/svg" viewBox="0 0 1125 400">
  <defs>
    <style>
      .cls-1 {
        fill: #c06b32;
      }

      .cls-2 {
        fill: #456e76;
      }

      .cls-3 {
        fill: #fff;
      }

      .cls-4 {
        fill: #cf983b;
      }

      .cls-5 {
        fill: #8e916a;
      }

      .cls-6 {
        fill: #676767;
      }

      .cls-7 {
        fill: #915724;
      }
    </style>
  </defs>
  <path class="cls-4" d="M544.98,48.15c1.32,1.36-2.47,1.92-2.23,2.98,7.99-2.64,16.39.33,24.68-.41,5.05,1.35,2.91,10.49,8.94,8.63v3.74s1.48-.76,1.48-.76l.75,5.23-8.22.74,5.22-.75c.18-1.28-1.75-.75-2.63-.76-2.6-.04-5.3.25-7.82.81.63,5.67,3.76,7.38,8.96,5.2-1.53,2.25-4.76,1.22-3.66,5.15l2.93,1.19-.39,1.87-1.85-1.49c-2.7,4.31,5.46,5.95,6.7,8.74,1.07,2.39.39,4.56,1.32,6.75.46,1.09,4.15,5.99,5.42,6.18l-5.1,3.85c-.85,1.44,2.98,7.96,3.97,8.85s2.35.47,3.13,1c1.84,1.22,5.82,5.58,7.72,6.8,3.07,1.97,11.22,2.93,5.96,8.26l.76,1.49c-5.35,1.52-10.03,1.78-14.95-1.14l2.98-.74c-.34-.92-1.64-3.75-2.97-2.96-.47.93-2.06,3.62-2.57,4.15-5.66,5.93-6.41,2.69-7.9,11.75-.09.55-1.25.41-1.46,1.06-.58,1.88-.79,4.86-1.55,6.91l-1.48-1.49c.32,1.82.21,3.66.31,5.47.15,2.82-.23,2.16-.31,3.92-.12,2.53.59,5.17-.03,7.77-5.58-.8-4.03,2.05-5.46,4.26-.29.45-3.24,3.42-3.48,2.11l1.48-1.5-1.87-1.16c-3.2-.34-2.1,2.81-3.05,3.08l-4.79-.46c-1.65,1.08.36,3.88-.49,6.19-.69,1.89-5.47,4.12-5.86,4.63-.16.21.26,3.64-1.3,5.08-1.51,1.4-4.39.17-5.77,2.06,3.04,1.16,5.87,1.36,4.46,5.6l-1.11-2.23c-1.89.76-.51,5.31.36,4.48v-1.49s.89,1.36.89,1.36l3.54.19c.74,3.47-1.24,6.92-3.65,9.31-1.32,1.31-4.23,2.54-4.57,3.08-.23.36-1.49,4.75-1.48,5.06.03.6,2.49.05,1.53,1.91-1.86-1.67-4.89.7-5.01,2.69-.06.97.68,2.1.58,2.79-.09.61-1.55.71-2.15,1.73-.84,1.43-.73,4.05-2.02,5.48-1.92,2.12-7.99,3.55-10.81,3.01l1.49,1.48c-3.44.71-7.41,1.09-10.67,2.41-4.1,1.66-7.11,6.07-11.73,5.81l.36-1.48,1.88.37c-3.5-2.47-1.5-6.53-2.39-9.56-.19-.65-3.77-4.38-4.34-4.63-1.47-.63-2.75-.11-3.96-.4-.66-.16-.26-1.51-1.61-1.56-2.31-.08-5.78,1.23-8.37,1.29-4.6.11-5.99-.32-7.09-4.86-.87-.66-8.12,2.4-8.85-.82l1.49-.75c-1.53.04-2.75,1.18-3.73-.38l2.23-1.11c-2.51.41-5.42.83-6.02-2.21-4.54,3.34-8.92,8.67-15.3,8.97-2.33.11-4.1-.96-6.49-.65-3.75.5-6.36,4.31-10.29,3.59l.36-14.28c-.35-1.55-5.4-5.29-6.34-4.38-.14.14.25,1.49-.14,2.04-.62.88-2.94.28-2.85,1.68l6.98-.66,1.22,3.66-1.44-2.69c-.93-.75-9.86,1.94-11.88,2.45-5.48,1.39-3.81.08-8.72.18-2.49.05-4.06,1.2-6.35,1.55l.74-2.23h-3.73s2.98-.76,2.98-.76c-1.82-3.54-5.97.86-8.89-.81l.68-5.91,2.23.75c.32-1.5-1.37-1.9-1.43-3.31-.07-1.76,1.29-3.01.37-5.7-1.03-3-5.51-1.68-4.17-6.68l-1.48,4.47c.62-4.73-1.8-7.43-5.23-10.09l1.48-.35c-1.54-4.35.63-7.73,1.15-11.99-2.85-2.37-5.21-3.75-8.61-4.45v2.98c-5-1.55-2.34-2.41-.74-5.22l2.97,1.48-.76-2.98-5.22,2.24.74-2.23-2.23.75-.86-2.89-3.63-.11,2.04-1.29,6.9-.57-12.65-4.14c-1.07-3.69,2.56-7.44.98-10.96-.63-1.4-3.34-1.94-3.21-5.06l-4.52-1.13h2.98s-1.49-4.11-1.49-4.11l1.55-.81-1.55-6.59,3.03-1.65-.03-2.14-1.49.38,1.48-5.98-1.48.76c-1.15-5.2,4.22-3.86,4.85-8.96,2.24-2.15.25,1.41.37,1.48,1.76,1.05,6.98-1.38,7.48-1.15.39.17,4.53,4.89,6,5.98,2.82,2.11,7.75,2.82,8.19,7.88l2.23-.75-.79,5.49c.29,1.31,3.82.71,4.71.43,1.66-.53-.32-.32,3.09-.76,1.58-.21,5.49-1.82,6.45.06l-3.73.75c2.7-.62,6.86.35,9.25,0,3.61-.55,4.35-5.66,10.17-3.72v3.73c1.39.44,1.85-1.24,2.74-1.38s1.78,1.24,2.89,1.36c1.77.19,8.19.4,9.53.04.76-.2.73-1.53,1.26-1.86,1.2-.75,3.08.27,3-1.13-2.88-.56-7.11,2.55-8.96-.75,2.15.72,7.07.62,8.98-.37,1.44-.75,1.11-2.62,1.69-3.17.51-.48,1.97-.28,2.48-.9.16-.19-1.04-3.59,1.22-4.28.89-.27,3.14.71,4.49.3,1.34-.4,2.44-2.09,3.96-2.04,1.4.04,2,1.89,3.73,2.23,1.17.23,6.27.27,7.33,0,.58-.14.51-1.52.92-1.53,1.35-.04,3.32,2,5.17.78l-.36,1.49,2.99-.73-.07,1.89,3.06.35c-5.48,3.79.69,3.82,4.49,3.72l-.76-1.48c5.72,1.24,4.02-1.7,5.4-2.82.54-.44,2.09-.43,3.06-.9.49-.24.43-1.52.94-1.52,3.2-.06,7.41,2.55,9.77-2.28,2.57-.46,3.45,2.31,3.68,2.32,5.21.19,5.48-8.08,8.37-11.01.45-2.7-.08-6.93,2.39-8.43l.39,2.25c6.74-.42,7.01-4,5.6-9.73l1.49.37c-1.34-1.96,2.79-4.88-.74-4.85l1.49-2.22-3,4.47c-1.71-.11-.35-3.31.09-4.02,2.71-4.35,8.21-.93,10.75-4.93l-.38,2.23,3.7-1.2c-1.29-3.64.77-2.66.78-5.51l-2.14-.06c.06-2.06-.95-4.14-.72-6.13.21-1.84,1.79-1.78,2.24-3.05,1.83-5.24.12-8.86,3.85-14.79,1.61-2.56,5.01-5.33,7.97-3.58l.38,1.49c.13-.51,3.52-3.6,4.11-3Z"/>
  <path class="cls-1" d="M46.61,24.3c.22.15-1.56,1.99,3.03,3.33.97.28,2.07-.43,2.97-.03,1.42.63,1.85,2.87,2.8,3.44.35.21,7.07,2.67,7.46,2.76,4.71,1.08,9.69-1.04,14.41-.58l-12.15,1.69-2.04,2.03c2.26.4,3.44-1.16,5.58-1.49,3.7-.56,9.33,2.71,14.58,1.48l-.34-1.52,6.73,1.62,1.46-1.58c3.53,2.15,1.76,4.22,2.64,7.46l6.69.8.77,5.19,2.23-.77c-.69,4.01,4.64,2.56,3.76,5.6-.09.31-1.13.32-1.27.57-.9,1.63-.2,5.6,1.25,6.92,1.15,1.17.45-1.08,1.19-1.19,2.82-.41,3.08,1.98,4.08,2.6,2.94,1.82,3.17,2.24,5.45,3.92,7.01,5.15,15.56,8.41,22.56,12.92,2.66,1.71,2.27,5.66,3.29,6.45l3.77-.45c.17,2.4,1.13,4.84,2.26,6.92.36.66,6.94,8.13,7.4,8.45,1.89,1.32,5.27,1.73,7.52,2.57l-2.98,1.48c2.95-.88,4.14,2.64,4.6,2.9,1.32.74,2.71-1.97,3.25.85,2.52.28-.42-2.06-.36-2.62.34-3.46,8.37,2.07,8.96,3.75-4.22,1.72.16,1.87.55,2.13,4.67,3.06,5.94,1.92,11.35,3.13l8.26,8.92-1.5.73,2.26,3.37,1.47-1.48c.26,3.49,2.68,3.24,4.18,4.45,1.03.83.34,3.2,2.93,3.75l-.38-2.23,7.1,2.97.36-1.47c-2.21-2.07-3.97-1.97-6.21-2.99-.4-.19-.46-1.24-.69-1.36-.65-.34-2.07,1.03-2.81-.52l1.36-.45-.61-2.15,1.87,1.49.75-1.5,10.51,1.45-.43,6.77.74-2.23h2.98s0,5.96,0,5.96c2.84-.72,3.17,1.34,5.24,2.62l-1.14,1.87-2.59-1.5v2.21s7.46.79,7.46.79c-2.31,4.01,2.25,7.28-3.07,9.3l.08,3.39c2.05-2.09,5.67,1.21,4.48,2.98-.35.52-5.28-.6-5.95,2.03-.68,2.64.91,2.07,1.42,3.05.26.49-.19,1.68.17,2.25.3.47,1.81.44,2.39.96,4.85,4.37,2.73,2.17,8.17,3.69,1.92.54-1.1.72,3.92.66,2.51-.03,2.01,1.5,3.14,2.32,5.13,3.7,5.06,4.62,6.17,11.18l1.48-2.23c1.31,2.17,1.06,4.89,1.67,6.92.3.98,1.4,1.44,1.73,2.41.25.74-.45,2.91-.21,3.21.31.39,1.71.42,1.99,1.35.41,1.32-1.8,4.69-.06,6.68-1.95,2.11-5.05,2.56-5.87,5.56,5.07-.89,6.77-5.09,10.24-8.05l12.5-.78c4.75,3.89,4.6,9.39,2.67,14.81h5.23c.24-.17-3.96-4.44-1.5-5.22-.2,3.99,5.23,3.93,6.38,6.74,1.47,3.57-6.31,8.3-5.62,12.32l1.48-.39-.74,4.47c5.71.2,1.86,5.91-1.52,7.16l.77,4.79,1.48-2.98c1.42,5.25-.6,10.8-.8,16.06-.05,1.42.57,2.77.53,3.86-.13,4.01-.87,8.12-.46,12.19l1.48-2.98c.69,2.97-1.11,5.75-4.17,6.01-1.12.1-.87-.91-1.69-1.47-.43-.29-1.46.06-1.61-.07-.13-.1.88-1.58.68-2.47-.4-1.72-3.8-1.54-2.92-4.25l-7.07,5.96-13.49-7.49c-1.84,1.31-2.05,2.09-4.84,1.54.46,1.81,1.71.99,2.99.74l-.37,3.73c-1.53-2.08-3.82-3.23-5.64-4.82-4.37-3.81-8.5-10.77-12.89-13.25-3.03-1.72-6.91-2.72-10.17-4.77-3.64-2.28-5.63-5.41-8.29-7.4-3.47-2.6-11.27-4.04-11.32-10.01l-2.13-.09c.27-.99,1.14-1.85.43-2.98-.26-.4-6.2-5.46-7.21-6.29-3.15-2.6-3.97-3.41-6.71-5.99-2.09-1.97-6.21-4.28-7.84-6.35-2.77-3.53-3.47-9.31-6.75-13.42-1.85-2.32-8.34-6.53-8.86-7.57-.9-1.81-.69-4.85-1.35-6.86-1.63-5-4.96-6.85-6.37-11.57l1.32-.2-.87-8.83c-3.66-.08-10.78-5.74-12.59-8.7-1.37-2.24-1.08-4.7-3.3-7.15-2.15-2.36-5.32-2.91-7.33-4.42-1.02-.76-2.83-3.58-4.06-4.52-2.88-2.19-3.43.2-5.11-5.94-2.09-7.66-3.43-14.73-6.93-22.2-3.81-8.13-5.35-6.75-12.3-10.7-.86-.49-1.74-2.2-3.77-3.11-1.51-.68-5.25-1.31-5.76-1.72-.95-.77-.44-2.26-.96-3.16-1.7-2.96-2.83-7.36-4.21-9.4-.62-.91-2.5-1.49-3.46-2.73-1.88-2.44-3.36-6.05-6.19-7.93,1.4-4.01.1-1.84-1.35-2.76-.57-.36-3.74-4.76-4.77-5.34-2.3-1.3-4.34-1.09-7.6-2.92-7.83-4.4-6.89-4.49-12.03-10.72-1.71-2.07-6.02-4.14-7.94-5.9-4.95-4.52-12.17-14.61-6.75-20.92l5.19.48ZM222.22,143.74c-.73-1.87-3.7-2.61-5.46-2.24-.6.12-.56,1.25-1.03,1.5-1.5.79-4.23.58-3.96,2.99l6.72.75-2.98-2.23c3.67,1.12,4.2-2.02,6.72-.76Z"/>
  <path class="cls-2" d="M1086.64,300.22c-.04-1.08.88-2.54-1.49-3.36,1.8,3.96.02,7.91.07,11.5.13,9.87,1.85,20.82.71,30.74-.12,1.07-.09,1.95-1.17,2.57-1.86.52-1.53-.45-2.1-.92-2.86-2.4-5.39-5.47-7.49-8.53-3.76-2.41-10.23-4.81-8.7-9.96l2.54.72,1.93-7.44c-3.64,2.9-5.2,7.2-10.26,8.04-2.71.44-5.45-.17-7.99.22-2.3.36-4.11,2.6-6.61,2.2-.14-.02-2.02-1.82-2.02-1.96-.01-.52,1.84-4.2-.37-3.27-1.59.67-2.72,4.26-6.35,2.99.96,4.76-4.85,8.25-8.95,8.19l-.02-2.23h-2.98s0,2.25,0,2.25c-2.22.65-.84-1.64-2.58-1.57-2.96.12-7.6,2.93-11.62,1.57-.94-3.11,1.57-3.14,2.27-4.28,2.34-3.83,7.04-13.86,9.95-16.38,1.93-1.67,10.44-5.19,13.01-5.29,3.11-.12,6.51,1.54,9.88-.2l-6.22-2.36c-3.4-2.3-6.58-4.99-5.74-9.59h3c.32-5.69-4.86-2.95-7.51-5.76-1.11-1.18-1.79-4-2.42-5.59-2.61-6.64-4-9.49-9.44-14.44-1.43-1.3-3.38-2.04-4.53-3.71-.21-.57,2.47.06,1.49-1.86-6.05.86-9.82-3.96-14.42-6.12-7.54-3.55-19.42-8.76-27.54-9.83-1.28-.17-2.36.23-3.61.25l1.49-2.23-7.47-.75,1.14,1.48c-5.95-.28-9.95-4.27-15.33-5.98.17-1.87,3.74.66,2.98-2.22-1.51-.72-4.58-1.05-4.49-2.99h-.72c.33,2.32-2.01,1.39-3.75,1.48,1.02-5.21-3.93-5.08-2.24.75-1.32-.65-2.87-.75-4.17-1.46-.59-.33-4.95-4.25-5.13-4.54-.59-.96-.24-2.48-1.11-3.34-.23-.23-3.44.27-4.44-2.32-1-2.6,1.32-1.34,1.95-1.93.16-.15,1.52-3.43,1.53-3.85-.37-2.39-2.26-2.97-4.3-1.97v-3.73s-1.87,1.5-1.87,1.5l-1.11-1.5v6.71s1.48-2.23,1.48-2.23v4.48s-5.97,0-5.97,0v2.99s1.38-.63,1.38-.63c.89,2.15,2.96,3.22,2.37,5.85-1.34-.99-7.34,3.51-7.47,4.13l2.98,3.34h-5.97s1.55-1.16,1.55-1.16l-1.32-2.61-6.21.79c1.03-2.1.47-5.35.9-7.12.11-.44,1.38-.23,1.34-.71-.13-1.83-7.82-6.58-9.5-8.07-.68-.6-.53-2.06-1.14-2.59-2.16-1.87-11.18-1.82-12.2-3.14l2.08-6.59c3.05-.01,12.53-1.28,14.03,1.71.15.31.19,1.23-.36,1.11-3.3-3.77-8.63-1.82-12.93-2.03-2.38,1.78-1.62,8.61,1.34,4.29l-1.51-.38c-.78-3.46,6.43-3.54,8.43-3.18s3.47,2.11,5.08,1.78c1.39-.29,2.84-3.15,3.97-3.93,3.1-2.12,6.91-1.12,8.38-4.04l8.53,1.53-2.24,2.23,4.44.09c.19,1.45-.58,2.57,1.53,2.16v-4.47s4.48.74,4.48.74l-1.49-5.97c1.7-.32,3.8,1.57,4.47-.73-1.21-1.22-2.71-.81-2.84-.91-.51-.44-.49-1.76-1.66-2.47-.75-.45-4.44-.43-4.46,1.12l2.98.75h-8.96s2.98,2.24,2.98,2.24l-8.96-.73,4.48,1.48h-5.98s.76-1.48.76-1.48h-3.74s2.23,1.48,2.23,1.48l-5.61,1.51-.47-1.32c-5.1,1.81-4.18-2.15-4.44-2.35-2.01-1.64-15.27,1.6-14.89-6.78,2.32-.11,3.77-1.32,3.75-3.74l-2.24-.74,2.25-.38c-2.38-.82-1.43-1.81-2.63-3.36l-.82,1.55-4.78-.81,2.23-1.48c-3.77-1.78-8.09.71-11.94-.37-1.33-.37-1.8-.21-1.5-1.88l2.25-.39-3.75-.73,2.69-1.09-.45-2.27,2.92-.06c1.49-2.67-2.43-4.06.41-6.71,1.51-.09,3.43-2.66,3.99-2.88,1.99-.79,5.01-.36,6.87-1.2,1.08-.49,2.67-2.87,4.38-3.83,5.48-3.07,12.15-1.51,18.04-1,.19,1.28-1.77.8-2.6.73-2.61-.2-4.52-.83-7.49-.74-.9.03-2.78-.55-2.6.74,3,.11,7.9-.07,10.66.93,1.23.45,1.82,2.05,3.14,2.07,1.31.02,2.34-1.54,4.32-1.37,2.35.21,5.84,3.35,8.48,3.6s6.12-1.46,9.48-.71c.34.08,4.74,3.67,5.76,4.09l-2.23,1.48c.64,2.23,2.51,1.73,3.77,2.94,3.08,2.96,2.53,8.32.7,11.84-.27.53-1.38.59-1.72,1.44-1.18,2.95.14,5.13.24,8.06l2.23-1.49c.34,1.9-2.06,2.15-2.07,3.94,0,.89,2.98,9.8,3.52,10.47.78.98,3.57,1.55,4.53,3.51-1.06-3.67-3.45-4.41-.37-8.21,2.85,1.89,2.04,5.47,3.19,8.02.51,1.12,2.25,2.27,2.37,2.91.21,1.15-1.87,1.82-1.44,3.26l2.98-1.49c.8,8.55,9.15,8.98,15.62,5.53.82-.44,8.56-6.7,8.89-7.16.13-.18-.56-1.02-.4-1.19.92-.99,5.18-4.28,5.4-4.65.92-1.56.37-6.09,2.03-8.06,5.77-1.47,11.74-1.19,17.63-1.03l1.25-2.13c.83-2.64-5.93-.21-7.36-.62l-.48,2.12h-2.24s.05-2.17.05-2.17l11.9-2.32-.74-5.91c4.92-.46,6.95-3.74,10.97-5.9,5.08.06,7.61.36,12.32,2.19.49.19.57,1.06,1.2,1.35,1.74.79,4.89.79,6.79,2.4l-2.14,5.13c1.54.57,2.65-1.23,3.51-1.36.55-.08,5.55,2.64,7.7,1.36l-1.49-1.86c-.12-.56.72-.48,1.1-.36,8.94,2.8,17.14,11.96,28.04,10.81,1.6,1.83.32.95-.83.84-2.14-.2-4.44-.71-6.57-.9-1.16-.11-2.43-.99-.84.84l10.9,1.92c1.19.31,1-1.53,1.53-1.59,2.2-.27,12.54,2.91,13.35,5.26.28.5-.37.94-.37,1.12v34.73h-.75v-35.85c-1.32-.17-.71,1.69-.75,2.61-.21,4.98.19,10,.03,14.98-.06,1.77-.77,3.4-.81,5.17-.41,17.8-.7,37.59.03,55.31.04.92-.57,2.77.75,2.61v-34.36c2.08.61.75,4.65.75,6.35v29.13c0,.42-1.1,1.67-.75,2.62l-2.25-1.11c.3,3.89,4.12,5.74,4.52,9.69.37,3.64-.78,9.51-.8,13.42,0,1.55.86,3.29.84,5.25-.09,8.37-1.56,17.21-.82,25.78l-2.98-2.23,2.24.74c-.43-14.27.58-28.68,0-42.95ZM1043.97,313.21l-.62-3.32-4.53-.32c-.04,1.13,1.89,1.21,2.1,1.6.23.41-1.96,4.29,3.04,2.05Z"/>
  <path class="cls-5" d="M678.71,128.06c2.84.48,5.32,1.92,7.16,2.22,4.02.65,9.6-1.78,14.77.16,1.09.41.98,1.92,1.75,2.12,2.44.64,5.9-.79,8.44-.02l-2.24-1.5c.8-2.63,3.08-.38,4.74-.7.5-.1.47-1.2.69-1.34.53-.34,1.36.53,2.43-.11s3.75-4.09,4.61-4.57c1.11-.62,6.22-3.11,7.12-3.48.74-.31,4.19.78,4.97-1.43l-.67-2.54,2.96-.8c-2.35-2.95,4.12-5.75,4.49-3.28-2.75,4.14-1.18,11.14-3.4,14.51-.31.47-1.41.58-1.64.92-.15.21.56,1.01.43,1.2-.33.47-3.29,1.74-4.11,2.61-1.22,1.28-2.94,5.29-4.3,6.53-3.46,3.13-14.53,3.36-19.43,3.73-.79.06-2.84.47-2.63-.77,4.51-.82,9.27-.32,13.77-.8.25-.03,4.71-1.13,3.77-2.21l-7.84,1.5.76-1.48c-1.9-.76-3.63,1.43-4.86,1.47-1.3.04-2.41-1.53-3.59-1.31-.8.15-1.53,1.33-3.16,1.42-1.39.08-.66-1.45-2.17-1.64-3.29-.41-7.46.41-10.88.07l.36,1.51-5.59-.78,4.48-1.48h-8.21s2.98,1.48,2.98,1.48c-3.14.63-6.65-.52-9.39-.65-.35-.02-.24,1.27-.81,1.41-3.36.8-6.09-2.78-9.97-.75l1.49-1.48-4.84-.76,1.11,2.24c-1.77-.45-5.62,2.03-6.72.02l2.98-.75h-8.96s5.23.75,5.23.75c-1.86,2.78-9.38.8-12.14-.06-.65-.2-.53-1.27-1.08-1.42-4.09-1.14-7.22,4.47-8.96,7.28-.47.76-1.7.96-1.76,1.42-.18,1.31.76,2.56.71,3.65s-1.26,1.88-1.39,2.98c-.87,7.28-1.06,13.88,7.44,16.03,1.23,1.84-2.98,1.26-.73,2.58.79.46,1.92.44,2.63,1.14l.71-1.49c1.77,5.12,6.24,7.9,11.53,8.13,2.02-5.72,6.01-14.26,13.5-11.11l-1.49,1.48c2.02-.72,2.12,1.55,3.31,1.57,2.67.05,4.33-2.79,6.84-3.75l2.54,1.44-.75-2.22c.24-.33,6.83-2.03,7.79-2.16.88-.12,2.28.74,3.71.64,5.13-.34,10.76-4.77,16.89-.72l-1.49,2.61c-.2.49,2.4.07,1.49,2.23-4.97,4.26-7.53-4.37-12.69-3.35l2.23,1.11c-1.32,1.51-3.13,2.21-4.48,3.74-1.59,1.81-4.2,8.22-4.61,8.47-.69.42-2.01.01-2.87.13.31,5.43-8.09,5.47-11.21,7.09-1.27.66-1.91,3.9-5.22,3.36h2.62s.36,1.48.36,1.48c-.95,1.06-5.38-.68-6.27-1.4-.97-.79-.08-2.33-.57-2.94-.2-.25-4.9-1.5-5.49-3.1l-1.11,2.6,2.16-.31c1.34,5.13,4.73,5.39,7.9,8.17s9.71,9.46,10.52,13.4c.49,2.37-.86,5.17,1.46,8.28.7.94,2.73-.69,3.29,1.19l.06,3.99-2.23-1.48v4.47s1.1-1.36,1.1-1.36l2.61.98c-2.41,2.53-1.57,6.51,1.13,8.6,2.46,1.91,6.92,4.11,9.32,6.36,1.17,1.1,1.82,3.51,3.02,4.83-4.05-.35-4.98-.41-7.1,2.99l.38-2.23h-3.73s.75,2.23.75,2.23c-5.81-.21-8.85-.79-8.97,6.73l-2.23-.75.74,5.22c-3.68,1.14-3.76-1.53-5-2.28-1.08-.66-3.39-1.11-4.7-2.21l1.53-1.15c-2.11-3.03.32-8.06-3.03-9.66,1.46-1.23,2.38.23,2.98-2.61l-5.84.64c-1.98-2.85-4.88-6.36-7.28-8.81-1.1-1.13-2.69-1.09-4.39-3.08-.87-1.02-1.42-2.94-2.43-4.06.34-1.97,3.7-3.47,4.12-4.62.45-1.23.04-3.01.64-4.57.33-.86,1.52-.89,1.57-1.01.09-.2-.09-4.13-.15-4.42-.29-1.37-5.37-4.8-6.77-4.86-1.88-.07-10.22,4.86-11.75,6.41-5.4,5.47.94,6.78,3.2,11.54l-.75,15.69-2.21.45-.08,10.41,1.48-.76c1.76,4.54,1.49,8.12,0,12.7l-1.48-3.73-.38,5.97,1.86-1.49.72,6.69c-1.38.77-3.7-.16-4.67.05-.6.13-.56,1.22-1.1,1.43-5.77,2.33-8.09,4.51-14.15.94-6.51-3.84-3.62-8.97-1.65-14.49.19-.54,1.29-.54,1.42-1.12.21-.97-.73-3.29.02-4.69l2.23,2.23c-2.58-3.48.66-5.19.81-6.29.25-1.93.16-6.27-.01-8.3s-2.18-3.07-.8-5.57l-1.48.76c.07-3.74-3.31-7.22-2.25-10.46-2.11-.44-1.18,1.42-3.27,2.31-1.42.61-9.37,2.89-10.15,2.13.22-2.97-2.16-5.82-2.22-8.63-.03-1.8,1.13-3.12,1.13-4.4,0-1.2-1.27-2.62-1.06-3.65.36-1.78,6.29-4.2,7.38-6.03,1.53-2.57.47-6.51,1.44-8.09.54-.89,5.5-1.79,5.23-6.15l-2.21-.36c1.89-4.11-.41-7.82-.47-11.71-.07-4.07,5.63-7.54,7.18-11.12l6.38-.24,1.09,1.41c.49-1.93-.81-3.95-.78-5.64.05-2.9.86-3.35.37-7.84-.08-.79.58-2.81.42-2.94-1.89-1.62-3.89,2.57-2.99,4.47-1.55-.08.06-2.74-2.23-2.25l2.87-3.46-1.29-4.21c1.06-2.33,2.31-1.92,4.39-1.28l-.8-2.54c3.08-.92.68-2.71.98-4.46.08-.46,4.02-5.36,4.67-5.76l12.36-1.01c-.28-3.67,1.79-3.62,2.56-4.91.82-1.38-.28-2.95,2.28-3.7l-1.12,2.23,11.95.75-1.49-1.86c1.92-1.28,5.05,3.14,6.32,3.38,2.08.39,13.34.73,14.59-.02l-14.94-1.49c2.78.65,6.88-.97,9.36-.78,1.77.14,2.56,1.37,3.67,1.44,1.31.08,3.26-1.17,4.89-.67.12,1.43-1.82.43-2.91.84-.17.06-.02.62-.07.65Z"/>
  <path class="cls-7" d="M321.78,283.97c.98.83,4.38.89,5.79.94l-1.49,2.23,9.71.75-7.46-2.23c3.71-1.13,8.68,2.1,11.74,2.07,1.25,0,2.06-1.59,2.44-1.33.16.11.79,2.6,1.74,3.5,3.23,3.08,8.23,1.16,8.37,8.44.87,1.25,11.36,2.38,13.44,2.33,6.83-.17,11.51-.08,18.67.68,5.44.58,10.84,2.7,16.06,0,.33,1.94-.29,1.34-1.61,1.71-5.7,1.58-11.83-.79-17.54-.93-1.18-.03-2.2.13-2.51,1.45,5.93-.66,11.73.96,17.57,1.11,2.21.06,4.24-2.2,5.96.38,2.13-3.1-.27-5.08,2.06-9.13,3.98-6.92,7.67-1.43,11.64,1.78l-.63,2.14c1.95.68,1.26-1.13,1.83-1.34.49-.18,2.88.28,3.76-.16l-1.11,1.5,2.61.03.74-2.26c.98,1.9,1.8,2.31,3.79,2.95l1.06-1.45c-.09,3.33,7.49,1.67,8.18,2.33.22.22-.15,1.48.2,1.95.41.57,1.67.46,2.32.94.49.37.47,1.16.9,1.33,1.5.56,3.66-1.3,5.19-1.37,5.43-.22,7.57,6.95,10.49,10.5.71.87,7.14,6.6,7.63,6.73,1.89.48,4-.6,5.7-.49,2.34.15,6.91,2.07,8.28,1.99.43-.03.31-1.3.96-1.49,2.72-.79,6.41-.41,9.19-.02l-.75,2.23c1.97,1.01,2.32-1.5,2.7-1.53,1.42-.13,3.72,1.27,5.51.8,1.25,2.82-1.47,3.77-1.56,4.82-.11,1.38.41,11.25.9,11.58.26.18,1.4-.59,2.17-.3,1.61.6,3.79,2.91,3.73,4.79l-5.98-1.51.75-2.21-1.85,1.49c-3.23-3.08-6.92-1.26-10.86-2.62-2.22-.77-4.75-3.15-7.46-3.37l1.48-1.47c-2.76-1.86-5.96-.96-8.45-1.52-.55-.12-.44-1.32-1.03-1.46-7.31-1.79-7.08,1.09-12.01,2.77-1.53.52-8.46.97-10.27.95-6.72-.07-3.47-5.42-7.47-5.31-1.67.05-2.55,1.43-3.76,1.56-1.57.16-3.73-1.24-5.57-.73l.75,2.23c-9.52,2.56-18.43-2.21-27.64-3.74l5.97-.73c-3.17.97-5.03-2.65-7.12-3-1.97-.33-3.64.67-5.11.53-1.26-.11-3.1-1.86-4.95-1.28l2.23-1.48c-9.7-3.39-19.97-4.8-30.25-5.09-2.94-.08-7.78-.3-10.48-.23-1.41.03-1.04,1.42-2.01,1.82-1.05.43-11.07-.06-12.85-.31-2.9-.41-4.99-2.61-7.9-2.93l3.73-.36c-3.15-4.77-7.83-3.52-12.69-4.11l2.98,2.23c-2.03-.21-4.44.32-6.39.05-3.71-.53-4.11-.64-8.08-.82-1.26-.06-7.18-1.79-7.96-2.56-2.94-2.89,2.42-6.32,1.51-7.11-4.78,1.24-8.12-2.42-12.39-2.93-3.76-.45-7.26,1.76-10.02-.44l2.23-.74-2.98-4.11,2.24.74-.37-1.49c2.78.39,3.77-1.18,4.11-3.73l.74,1.49c3.48-1.48-.11-5.17-.01-7.16.07-1.52,1.41-1.28,2.03-2.07.35-.44.07-1.56.35-1.8.27-.24,3.96-.86,4.74-.91.87-.06,1.73-.05,2.59,0l-2.23,2.23,3.39-1.49.68,1.38,4.89.11-2.98-2.23,10.01,2.26c3.87-4.26,6.75-6.73,11.6-1.84,1.06,1.07,1.2,2.67,1.74,3.12Z"/>
  <path class="cls-6" d="M736.15,344.02c-.1,2.1,2.02,3.1,2.35,4.79.26,1.32-.78,5.21-.6,5.42.64.76,3,.5,2,3.4-4.39,2.48-8.92,11.61-13.78,12.38-2.94.46-5.71-.68-8.55.05l.75,1.48c-3.42-.27-6.62,4.47-9.96,3.76-.47-.1-.33-1.09-1.09-1.48-.91-.47-3.51.51-3.18-3.33.06-.66,1.77-.55,2.16-1.64,1-2.8-1.37-7.08.32-9.04.76-.88,3.9-2.27,5.19-3.2,2.39-1.74,4.51-4.12,7.84-5.07.7-.2,2.64-.73,2.44.58l-2.23.75c1.84.53,4.01-.9,5.57-.73,1.69.18,2.79,2.56,5.68.35,1.02-.78-.23-1.99.04-2.87.32-1.03,3.78-1.49,1.04-4.2l-1.86,2.97.36-2.99,5.52-1.38Z"/>
  <path class="cls-6" d="M819.55,211.71c1.26-.09,2.29.32,1.86-1.49-2.08-.38-4.88,2.06-5.97-.74,1.57.62,4.61-.87,5.56-.65.76.18.86,1.61,1.74,2.12,3.5,2.01,11.46-1.67,14.67-1.48.42.02.39,1.24,1.01,1.44,4.22,1.35,9.19,2.52,13.62,2.3l-7.46,1.48c2.74,2.35,4.98,1.05,8.27,1.85l.71,5.62,2.49.02.49-1.49c2.8,2.37,9.16,10.56,1.85,10.52-7.75-.04-11.12-8.98-18.86-9.64-3.02-.26-4.78,3.85-10.48,1.59-2.34-.93-2.97-2.49-7.51-3.03-2.48-.3-10.02.56-11.14.08-3.28-1.43.2-5.55-.14-7.3-.16-.81-1.87.06-1.55-1.18,3.58-.19,7.26.26,10.83,0Z"/>
  <path class="cls-6" d="M278.48,186.09c.97.69,3.09.75,4.25,1.72l-.73-2.99,5.1.87,3.12,9.58,1.48-2.23,1.55,7.8-1.54.78c2.91.86,2.18,3.12,2.36,3.26,1.47,1.23,7.52,1.86,9.59,1.6l-.82,3.71c-3.12-1.83-3.3,1.77-1.59,2.26.58.17,1.55-.26,2.24.15.57.34,1.06,3.19,3.16,2.85-4.3,5.73-6.24.96-9.5-.6-2.34-1.12-5.9-.75-7.99-2.48-.28-.23-3.96-5.38-4.03-5.72-.37-1.76.73-2.91.63-4.16-.02-.27-3.73-3.57-3.97-3.69-3.71-1.94-9.09-3.03-13.25-2.78-1.09-1.11,2.5-4.16,2.91-5.08.7-1.54,1.3-6.77,3.05-8.03,2.19-.59,3.17,2.6,3.97,3.17Z"/>
  <path class="cls-6" d="M573.36,338.69c-.27,1.56-3.53.38-2.98,2.97.7.61,13.88-1.88,14.19,3.74l-10.46,1.51.76,1.48c-3.52-1.32-5.54,1.04-8.98,1.86-3.26.78-11.88,3.8-12.1-.96l-2.02-.2c-.36-2.51,1.05-4.74,1.37-7.12.25-1.91-1.76-5.01,2.32-6.67,1.14-.46,3.16.54,4.81.44,2.86-.18,5.72-2.57,8.59-1.53l.77-2.25-.4,5.23,4.13,1.5Z"/>
  <path class="cls-6" d="M784.05,232.63c-3.29-1.56-7.65-.02-10.67-.91-.93-.27-1.6-1.49-2.56-1.92-1.14-.51-3.4-.69-3.84-1.01-.12-.09.75-1.67-.48-2.14l-.73,1.5c-3.34-2.61-8.45-4.61-7.85-9.71l2.61,4.46,1.87-4.46c-1.48-.04-2.66.59-2.24-1.49,2.35.49,4.32-1.55,6.39-1.58,1.39-.02.98,1.5,1.57,1.6,1.94.34,5.04-1.67,7.73-.04-.29-1.39-1.48-1.35-2.59-1.51-.57-.08-4.83.66-3.76-.72,6.34-.89,11.48,2.23,15.65,6.69l-1.09,11.24Z"/>
  <path class="cls-6" d="M615.66,354.69c.41.21-.19,1.12,2.14,1.24,3.36.17,2.28-1.52,3.74-1.64.76-.06,4.8.3,5.42.6,1.75.86,1.78,3.2,2.65,3.76,1.35.87,6.33,1.82,8.07,1.27.31,2.69,3.06,4.32,3.91,5.83.9,1.59-.13,3.88,2.76,4.68-3.25,3.79-9.66,1.96-13.74.3-1.92-.78-6.07-2.94-4.17-5.14l-10.85-4.47-.37,2.22-8.21-.75c.88-2.56,6.62,2.13,5.98-1.48-2.84.91-2.83-1.12-3.53-1.52-1.29-.74-3.44.62-3.94-1.46l8.96-2.26-1.49-2.22c1.3-.36,1.86.64,2.69,1.07Z"/>
  <path class="cls-6" d="M646.59,334.94l-.76-1.48c1.38.46,3.44.39,4.65.81.63.22.57,1.12,1.18,1.35,2.78,1.05,9.01,2.16,9.84,5.71.4,1.71-2.21.35-1.47,2.57h8.21s-2.98-.75-2.98-.75l1.95-5.27h5.86s.41,2.29.41,2.29l4.72-.8,1.24,1.92c-5.54,2.91-12.1,3.69-18.25,3.32-1.16-.07-2.28-1.2-3.03-1.2-1.04,0-2.23,1.66-3.76,1.96-2.64.5-6.15-.29-8.93.03-.73-1.96,4.47.73,3.36-2.24l-2.67-.7-1.43,1.43-1.89-2.98h-1.1s-.69,1.42-.69,1.42c-3.18-1.3-6.95-.85-10.14.07l8.96,1.48c-3.43-.95-9.34,1.23-12.15.64-1.19-.25-2.16-1.42-3.37-1.94-.94-.41-2.6.34-3.19-.66-2.34-3.94,4.64-7.81,7.93-7.8,1.35,0,.94,1.39,1.58,1.54,2.08.5,7.23.74,6.6-2.24,3.27,1.09,5.8,2.66,9.33,1.5Z"/>
  <path class="cls-6" d="M947.17,273.52c.27.45,2.31-.08.45,3.36-.44.82-1.39.51-1.44.57-.27.42,1.51,1.39,1.5,2.59,0,.87-2.56,3.83-1.5,4.86,1.6,1.56,3.23-2.63,3.72-2.24l.76,3.34-1.52.81-5.96-2.65c.74,1.77-.88,2.74,1.49,3.35-.37,1.19-2.28.35-2.63,1.05-.63,1.26.06,3.2-1.08,4.2-.22.2-5.27,1.76-5.66,1.78-.16,0-.69-2.2-2.57-1.43-.4-1.05,3.01-.65,1.48-2.23-.43-.45-2.64,1.99-2.23-.36.74-1.03,2.18-.78,3-1.65,1.88-2-1.39-1.27-.79-3.58l2.26-1.51v-1.1s-2.24-1.5-2.24-1.5h3.73s-2.23-3.38-2.23-3.38l1.48-.36c-.06-.63.12-1.35.05-1.93-.24-1.82-1.66-.45-1.53-1.81,3.29.69,2.64-.73,4.1-2.27.44-.47,1.53-.57,1.73-.84.24-.34-.73-6.48,2.87-7.29,6.86,2.16,1.41,7.97,2.75,10.21Z"/>
  <path class="cls-6" d="M339.39,208.85c.43,3.23-2.78,8.74-5.88,9.96-2.53.99-5.19-2.63-7.43-3.36,1.91,3.1-1.5,6.65-3.43,3.75-.54-.81.44-2.15.28-3.21-.5-3.22-1.87-3.94-.15-7.95,3.17-7.38,11.85-1.98,16.61.81Z"/>
  <path class="cls-6" d="M812.44,113.13l-5.21,3.35c2.71.26,3.2,7.24,2.27,8.79-.15.26-3.84,4.18-4.09,4.34-1.08.7-2.2.77-3.42.69-.06,3.58,2.51,3.02,5.23,3.74h-2.98s-.02,5.22-.02,5.22c-1.39-1.46-2.71-.78-4.23-1.29-1.44-.49-4.11-3.95-3.24.54h-2.24s1.1-4.53,1.1-4.53c5.76-1.06,2.15-1.3,1.98-1.79-.25-.75,1.37-2.88,1.24-3.6-.16-.92-1.88-1.97-1.33-3.51l1.48,1.48,1.5-5.22-2.23.74v-1.48c4.85-1.86,8.88-7.43,14.18-7.48Z"/>
  <path class="cls-6" d="M514.93,329.16c.29.17.79,1.58,1.81,2.26,2.78,1.87,10.21,3.46.6,4.27-.68.64,3.28,7.77-4.47,4.48l2.23,3.73c-1.56-1.19-.23-1.77-2.98-1.1-1.32-.7.3-2.12-.02-2.54-.15-.19-2.09-.56-2.93-1.24-3.68-3-5.68-6.02-11.24-6.33l1.24-2.9c1.76-.52,6.58,1,8.84.71,2.17-.27,4.62-2.69,6.94-1.35Z"/>
  <path class="cls-6" d="M790.2,109.24c.24.4,1.71.42,2.02,1.37.17.53.18,10.18.07,11.13-.43,3.88-2.61,4.32-3.78,7.37,2.02,2.33,2.26,1.51,5.26,1.21l-2.98,1.86c2.76.73,1.12,4.08,1.49,6.35-2.94.13-5.32-3.16-4.49-5.97l-1.48,2.98c.47-1.84-1.03-3.78-1.16-5.17-.09-1,1.17-1.93,1.19-3.37.08-4.5-.43-9.01-.03-13.47l-1.5.37c-1.02-1.51,4.18-5.54,4.85-7.47.85.43-.02,1.92.53,2.83Z"/>
  <path class="cls-6" d="M740.61,185.73c.31.28-.14,1.62.56,2.15,1.31.99,4.33-.11,4.79,1.42-2.84.6-5.59-.15-8.58.02-.96.06-4.54.37-4.86,1.47,3.92-1.02,8.87.48,12.36.05,3.3-.4,4.26-.87,8.32-1.07,3.33-.16,8.16-2.05,9.96,1.76l-37.76,1.19-3.26-4.55c-.3-1.05,2.81-4.55,3.41-4.76.78-.27,14.51,1.79,15.08,2.31Z"/>
  <path class="cls-6" d="M127.59,173.39c.77,1.48,2.29,4.39,3.24,6.01,1.18,2,4.47,4.03,3.97,7.66l-1.11-1.49c-4.03,3.55-9.39-4-11.11-7.57-2.2-4.55-2.45-6.98-.47-11.85l-2.98,2.23.71-2.65c5.93-1.5,5.85,4.01,7.75,7.65Z"/>
  <path class="cls-6" d="M486.7,301.34v1.49c-.3.36-.95-.75-1.12-.75h-13.07c-.12,1.05,2.89,1.43,3.47,1.45,2.66.07,6.53-2.28,4.74,2.28.4.37,4.44-2.05,2.25.39-2.98.98-6.34,2.22-9.46,2.56-3.77.41-7.24-.6-10.53-1.28-2.96-.61-3.48,1.81-5.41-3.89,2.19.14,4.21-.98,4.85,1.48,1.73-2.3,4.58-1.37,7.1-1.5l-6.72-.75,4.85-1.49h19.05Z"/>
  <path class="cls-6" d="M541.24,332.71c-.66,5.78,7.1,1.33,8.22,2.25l-6.13,10.29c-4.52-.08-8.9,1.91-13.29.15-.11-3.02,3.2-.02,5.16-3.48,1.18-2.08-.28-2.21-.39-3.6-.08-1.05,5.27-6.65,6.43-5.61Z"/>
  <path class="cls-6" d="M581.58,327.49l-2.98,2.23,5.22.02c-1.28,2.01.09,2.69,1.41,4.09l-1.4,1.5,2.24.38-1.48,1.48,3.72,1.51c-.29-4.13,3.29-2.94,6.33-2.94l.41-2.29,1.02.09c3.75.84,4.42,3.77,8.59,3,3.75,6.73-6.17,7.31-10.53,5.67-3.53-1.32-10.59-3.79-13.78-5.61-.71-.4-6.13-5.34-6.17-5.76-.25-2.66,5.17-4.22,7.42-3.37Z"/>
  <path class="cls-6" d="M98.95,128.8c-2.02.13-2.68-2.92-4.47-.37,2.13,2.03,3.64,2.66,4.47,5.59-.35-.02-.78.13-1.11,0-2.1-.83-7.49-11.06-10.41-12.75-1.33-2.33-2.2-6.61.91-7.55l-.6-1.35c.95-.75,8.52,6.21,9.31,7.49,1.77,2.87,1.55,5.77,1.89,8.93Z"/>
  <path class="cls-6" d="M541.24,222.18c.16,1.25-2.1.98-2.22,1.86-.23,1.63,3.47-.06,4.52.69,2.82,2-.62,4.35-.8,4.68-1.07,2.01-1.35,4.24-1.85,5.45-1.27,3.06-2.68,4.68-6.36,4.49l1.12-5.22.38,4.48c2.58-2.28-.43-7.61,1.48-11.2l-2.23,4.48c-.44-3.71.38-6.93,2.19-10.13l3.78.44Z"/>
  <path class="cls-6" d="M797.31,179.06c.88,1.11.9,4.28.95,5.77l1.87-.73.36,1.48c-2.81-.44-5.38,1.18-7.95,1.45-.48.05-4.44.02-4.63-.11-1.13-.76-3.65-4.8-2.76-6.57,1.96-3.89,8.18.41,10.85-.37l-1.49-1.86c.4-.32,2.41.47,2.79.94Z"/>
  <path class="cls-6" d="M882.67,302.09l.74-2.25c2.53,6.22-8.33.32-9.68,1.51l-2.27,8.93,2.97-1.11c-2.1-1.33-.96-5.5,1.5-4.11l-1.48-2.62c1.7-1.6,7.01,5.91,2.99,5.61l-.37-2.99c-2.28,2.84,0,7.03-1.12,10.45l1.48-1.49.76,2.22-9.71,3.74,3.74-2.97-2.09-.12-3.13-5.82c5.45-1.49,4.71-6.76,6.68-10.93l9,1.94Z"/>
  <path class="cls-6" d="M688.6,253.37c.76.47,2.14-.09,2.69.26,1.24.78-1.02,7.07,3.85,2.9-.28,2.44,1.39,2.87,2.99,4.11l-2.23.37.75,5.22h2.98c-.21,1.71-1.67.72-2.08.98s-.48,1.75-1.33,1.92c-.65.13-1.53-.66-2.12-.65-.25,0-1.24,2.77-4.18,1.49l.74,2.98c-6.27.1,1.07-8.82-.74-12.69l.75,2.25,2.23-.77-.75-3.72-1.48,1.49-.38-1.49-1.04,1.76-1.58.47c.29-.84.74-2.99-.74-2.98l-1.88,3.72c-1.96-.09-2.69-11.1,2.16-9.64.89.27.93,1.75,1.38,2.02Z"/>
  <path class="cls-6" d="M700.9,175.28c.23.32-.77,1.14.7,1.95,1.66.9,3.05.55,4.76.14-.69,3.12-2.5,3.28-4.08,5.16-3.97-.26-2.58-4.53-5.26-3.69-1.15,2.15-2.89,4.36-5.6,4.49-.56-2.87,3.32-4.27,1.12-6.71l-2.61,2.98c-2.16-6.02,9.03-6.94,10.97-4.31Z"/>
  <path class="cls-6" d="M695.89,336.44l-1.38-.66c-.2,3.96-11.31,6.96-13.41,5.73-.39-.23-1.28-2.8-2.39-3.2,1.39-.58,2.82-.28,4.46-.79,2.19-.69,3.15-4.99,4.87-1.07,2.05-1.71,7.31-3.98,7.85,0Z"/>
  <path class="cls-6" d="M257.34,153.45l-6.73.75c-.61,2.22,1.54.82,1.58,2.58.05,1.93-.57,2.66-1.58,4.13l2.24,1.5h-5.97s1.49-2.24,1.49-2.24l-2.24-.37c.46-3.36,2.36-2.32,2.81-2.74s.31-3.4.92-4.54c.77-1.44,3.25-.7,1.49-4.3.3-.31,7.39,2.92,5.98,5.22Z"/>
  <path class="cls-6" d="M849.06,185.58c-1.29,2.62-5.16,1.14-7.47,1.49l6.7,1.86c-2.04,3.19-3.97,5.07-8.11,4.02-.71-2.28-1.02-3.29.66-5.13h-5.23s2.23,3.72,2.23,3.72c-3.18.31-4.42-2.17-2.46-4.5l13.67-1.46Z"/>
  <path class="cls-6" d="M865.49,168.4l-1.47,1.2-.02,4.77c3.04.78.24-3.39,2.23-3.73.35,2.68.18,4.59-2.22,5.97-.16-2.35-1.71-2.46-3.75-2.23l.73,2.62-1.47.36-3-5.97c3.49,1.25,2.59-.16,3.22-.47.94-.47,2.21.21,2-1.02l-5.22-2.24,8.96.75Z"/>
  <path class="cls-6" d="M329.06,60.1c-.02-.09-1.04.03-.75-1.75.43-2.7,1.86-4.23,4.72-3.36,2.61.8,2.98,6.67,3.41,9.08l-3.27,3.52-2.22-.78c-.56-2.25-1.3-4.47-1.88-6.71,2.73-.59.49,2.66,2.23,2.98l.39-3,2.59.76v-3.73c-1.92.71-2.8.25-4.47-.74l-.76,3.73Z"/>
  <path class="cls-6" d="M144.59,199.69c-1.27-3.62-8.22-5.23-4.18-9.62,4.1,1.68,4.45,4.61,6.96,7.83l-2.79,1.79Z"/>
  <path class="cls-6" d="M858.03,329.72c-.28-2.1,2.44-2.63,2.85-4.26.46-1.82-1.85-5.48,2.38-4.69l-.76,1.48c.81,0,1.68.11,2.47-.14.45-.14,3.68-3.48,3.5-.97-.09,1.29-9.45,9.57-10.44,8.59Z"/>
  <path class="cls-6" d="M864,149.73c.57,4.7-2.78,6.49-6.35,2.98l-.78,1.53c-3.19-1.07-6-1.75-9.3-.79-.37-2.18.53-1.23,1.78-1.59,2.74-.78,9.23-.39,11.29,1.58l.77-1.48-1.14-1.48,3.73-.75Z"/>
  <path class="cls-6" d="M254.16,126.75c1.21,1.19.87,3.56.07,4.94h-4.27s-1.26-5.14-1.26-5.14c.95-1.3,4.47-.77,5.46.2Z"/>
  <path class="cls-6" d="M701.87,330.46l-7.47,1.49c1.4-2.25-1.01-3.58-.74-5.97,4.12.34,6.33.12,8.21,4.47Z"/>
  <path class="cls-6" d="M788.45,155.03c2.57,6.91,2.79,9.53-5.13,10.38l1.48-1.51c-1.66-1.92-1.67-2.85-.73-5.21l1.5,5.22.72-1.48h2.26c-2.62-2.67,1.39-5.5-2.99-7.1l2.9-.29Z"/>
  <path class="cls-6" d="M810.2,328.97c-3.97-1.02-9.69.18-12.7-2.98,2.94-.49,7.16,3.11,8.97,0l-5.23-.76c-.17-1.35,1.62-.67,2.42-.55,2.37.36,7.36,1.13,6.54,4.29Z"/>
  <path class="cls-6" d="M790.03,144.49l2.17.05c.46.47-.22,4.16.06,5.45.17.78,2.22-.03,1.51,1.97l-2.98.76c-.53-3.38-3.55-8.53-.02-11.21l-.75,2.98Z"/>
  <path class="cls-6" d="M166.93,221.42l-4.47-1.13,1.48-.35c.71-4.66-3.61-6.05-5.97-8.96,3.03-.77,10.35,9.03,8.96,10.44Z"/>
  <path class="cls-6" d="M204.25,120.61l1.54,3.37c-2.26.56-1.12,1.71-1.87,3.34l-2.04-2.03-1.27.5-.81-2.95,2.26-.38-1.5-1.11,3.69-.74Z"/>
  <path class="cls-6" d="M779.57,314.04c.19,1.1-1.24,1-1.99,1.17-3.98.92-8.25.29-12.2,1.8,2.36-3.92,5.2-2.1,7.88-2.18,2.04-.07,3.5-2.3,6.31-.79Z"/>
  <path d="M457.19,116.86c.5-.02,1.4-1.15,2.87-.69l1.23,2.18c-.28.36-.95-.75-1.11-.75h-16.06v-.75c4.34-.12,8.73.17,13.07,0Z"/>
  <path d="M677.22,157.2c-2.22,3.12-7.74,2.84-11.21,2.97.24-.75,1.25-1.85,1.88-2.23,2.06-1.23-.56,1.9,1.48,1.49,2.82-.56,4.76-2.88,7.85-2.24Z"/>
  <path d="M704.11,128.82c.19,1.28-1.77.79-2.59.73-2.27-.18-4.7-1.29-6.82-1.41-1.72-.09-3.9,1.41-5.52.3,4.3-2.94,10.21.43,14.93.38Z"/>
  <path class="cls-6" d="M731.14,330.33c.63.6,5.78-2.48,5.09.89h-6.71s1.48-2.23,1.48-2.23l.14,1.35Z"/>
  <path class="cls-6" d="M740.72,331.22v.73s-3.73,0-3.73,0c.56-2.06,2.15-.77,3.73-.73Z"/>
  <path d="M800.87,217.69c.49.25.49.5,0,.75v-.75Z"/>
  <path class="cls-3" d="M222.22,143.74c-2.52-1.26-3.05,1.88-6.72.76l2.98,2.23-6.72-.75c-.27-2.41,2.46-2.2,3.96-2.99.47-.25.43-1.37,1.03-1.5,1.76-.37,4.73.37,5.46,2.24Z"/>
  <path class="cls-3" d="M1043.97,313.21c-5,2.24-2.81-1.64-3.04-2.05-.22-.38-2.15-.47-2.1-1.6l4.53.32.62,3.32Z"/>
</svg>