<?xml version="1.0" encoding="UTF-8"?>
<svg id="_レイヤー_1" data-name="レイヤー 1" xmlns="http://www.w3.org/2000/svg" viewBox="0 0 500 500">
  <defs>
    <style>
      .cls-1 {
        fill: #996439;
      }
    </style>
  </defs>
  <path class="cls-1" d="M87.36,214.08s-24.93,5.43-22.75,22.41c2.18,16.98,6.32,21.77,22.75,23.51h8.16s.87,8.27,8.27,10.88,3.48,8.71,24.38,12.62c20.9,3.92,38.74,15.24,38.74,15.24,0,0,23.07,7.84,41.79,0,16.98-1.31,37.87,8.27,45.27,10.88,7.4,2.61,30.91,12.62,52.67,13.5s30.04,8.71,43.97,10.01c13.93,1.31,17.41-2.61,26.99,0s18.28,13.06,34.39,13.06,20.9-6.97,22.64-14.37c1.74-7.4.44-16.54,0-21.77-.44-5.22,1.74-25.02-3.48-29.92-5.22-4.9-16.98-17.09-40.92-11.43-9.6.24-12.79-4.22-16.93-13.78-4.14-9.56-15.61-24.53-29.31-27.72-13.7-3.19-18.8-2.87-25.81-6.05-7.01-3.19-16.25-9.37-26.13-7.07s-20.71,13.76-26.13,13.44c-5.42-.32-30.91-8.28-46.84-5.1-8.92-13.7-8.28-13.38-14.98-18.16-6.69-4.78-22.62-8.92-33.14-10.51-10.51-1.59-34.09-10.51-49.39-7.97-15.29,2.55-23.58,6.37-28.04,15.29-4.46,8.92-6.18,13-6.18,13Z"/>
</svg>