<?xml version="1.0" encoding="UTF-8"?>
<svg id="_レイヤー_1" data-name="レイヤー 1" xmlns="http://www.w3.org/2000/svg" viewBox="0 0 500 500">
  <defs>
    <style>
      .cls-1 {
        fill: #d8941b;
      }
    </style>
  </defs>
  <path class="cls-1" d="M381.87,114.68c1.17,2.02-.28,3.26-1.76,4.37-7.76,5.52-4.73,12.73-4.27,22.59.43,5.07.25,9.99,1.42,14.99,1.29,5.74,4.47,11.06,6.57,16.54,4.14,10.56,6.82,21,13.52,29.94,4.13,5.57,12.24,10.51,16.42,15.27,12.8,16.04-15.58,13.36-24.29,17.12-13.64,4.03-19.37,18.84-20.45,31.8-1,9.19-1.57,16.58-6.69,22.8-8.72,11.58-28.72,16.37-29.14,33.11-.57,6.88.93,13.78-.13,20.82-2.87,21.33-20.7,38.19-40.77,46.87-22.96,10.39-24.55-2.34-39.14-14.32-6.64-4.24-15.97-4.57-23.71-6.86-11.82-3.2-22.06-6.34-33.82-3.23-26.33,9.7-27.26-3.43-50.91-7.38-17.36-.29-33.1,1.88-42.77-16.29-4.9-8.79-5.25-20.23-8.89-28.81-4.74-11.56-14.33-16.06-22.08-26.52-7.51-10.75-9.87-24.46-14.36-36.5-3.82-13.19-7.04-29.87-.32-43.05,11.44-23.26,27.64-.92,41.33,7.15,11.99,7.85,26.43,9.79,40.36,8.05,16.89-1.73,31.2-13.24,47.31-15.95,15.56-2.95,31.22,3.04,46.91.06,14.84-.42,23.37-10.85,28.64-23.47,6.5-13.68,17.33-21.99,24.49-34.94,8.24-14.66,13.65-34.24,31.21-40.2,14.12-4.65,55.67-5.99,65.19,5.87l.11.18Z"/>
</svg>