<?xml version="1.0" encoding="UTF-8"?>
<svg id="_レイヤー_1" data-name="レイヤー 1" xmlns="http://www.w3.org/2000/svg" viewBox="0 0 500 500">
  <defs>
    <style>
      .cls-1 {
        fill: #376f77;
      }
    </style>
  </defs>
  <path class="cls-1" d="M357.44,326.22c-2.18-1.37-12.1-.44-19.53-2.43-25.35-6.54-28.34-43.25-50.87-52.54-22.42-9.04-45.65-14.87-68.71-21.64-12.71-5.51-25.71-8.68-38.51-11.11-7.16-1.61-13.93-6.02-21.26-6.06-11.52-.02-24.44,17.49-35.25,4.1-4.03-5.27-5.14-12.57-9.96-17.38-4.62-4.87-13.71-8.77-16.53-13.09-5.47-11.36,14.89-6.75,20.79-7.63,11.21-.69,22.02-6.21,33.2-7.02,1.17-.22,5.12-.5,3.36-1.53-17.62-5.1-45.17,4.44-59.88-9.66-5.61-5.54-8.25-12.52-13.54-17.68-9.69-7.75-28.87-6.73-38.22-16.67-11.83-13.39,15.3-9.81,22.07-12.3,37.37-10.63,49.21-22.62,87.93-2.89,8.43,3.34,20.39-.32,28.08,3.79,3.86,4.47,1.24,10.5.1,16-2.27,11-6.77,28.41.93,38.07,3.39,4.28,9.31,4.06,13.57,6.95,5.2,3.12,7.39,10.04,12.57,14.75,15.39,13.07,29.25-6.4,37.54-17.64,5.07-5.83,12.63-8.95,19.53-11.92,14.56-6.57-5.45-7.72-14.04-8.17-7.68-.63-19.33-1.7-23.48-5.93-3.23-7.48,21.84-4.75,26.32-4.95,10.61.31,20.17,2.6,29.05.63,6.05-1.25,11.74-4.16,17.71-5.65,7.52-2.06,15.11.05,22.18,2.94,20.71,8.18,41.7,15.95,63.05,22.08,11.39,4.42,34.72,4.37,33.77,20.54.42,31.51-.15,117.32,1.46,162.1-4.39,26.98-31.17-3.66-45.25-3.31-15.95,1.34-31.86,5.89-47.85,7.84-11.67,1.66-26.99,5.11-38.43.98-6.38-5.72,3.28-14.73,7.35-19.66,14.73-17.77,40.77-18.35,60.67-23.88l.06-.04Z"/>
</svg>