<?xml version="1.0" encoding="UTF-8"?>
<svg id="_レイヤー_1" data-name="レイヤー 1" xmlns="http://www.w3.org/2000/svg" viewBox="0 0 500 500">
  <defs>
    <style>
      .cls-1 {
        fill: #8c9065;
      }
    </style>
  </defs>
  <path class="cls-1" d="M184.96,212.94c5.38,7.66,15.34,14.37,23.67,15.5,8.08,1.6,15.56-3.74,22.37-7.7,12.9-8.33,30.2-9.43,45.3-11.81,6.52-1.09,13.28-2.21,19.88-1.78,7.25-.01,19,4.99,10.05,12.14-3.52,2.68-7.69,4.25-11.87,6.04-13.49,4.93-26,14.39-39.57,19.54-7.1,2.81-13.26,5.01-15.29,7.54-5.08,6.22,14.48,19.62,18.37,25.23,9.28,9.97,12.2,19.51,17.69,30.06,2.9,5.14,4.78,9.36,8.05,12.68,1.86,2.02,4.25,4.35,4.97,6.88.96,6.1-4.16,8.05-10.12,11.43-8.57,3.88-18.5,9.01-28.01,10.64-11.6,1.95-15.11-9.29-21.5-19.34-5.14-8.46-13.42-15.49-15.13-25.32-1.5-6.34-.19-13.62-3.43-19.37-3.81-6.43-14.49-3.1-17.66,3-6.11,10.62-1.53,25.58-3.48,37.78-.58,4.83-1.6,9.63-1.92,14.5-.49,10.04,1.58,26.18-11.06,27.9-7.8.92-17.96-2.18-20.69-10.26-3-8.4,1.85-22.01.11-32.5-2.79-17.92-31.52-14.01-29.19-38.03,1.09-9.9,8.34-16.46,12.66-26.35,4.77-9.32,4.61-20.71,8.87-30.14,4.23-9.98,12.37-16.64,13.47-26.03.82-13.08-3.9-27.33,4.03-39.09,5.86-9.59,16.23-13.84,25.44-19.24,11.1-7.12,23.62-11.76,36.56-7.99,15.16,4.44,31,5.7,47.04,8.19,34.61,5.57,48.1,9.2,78.09-12.74,8.11-5.17,19.56-11.42,20.97-3.95.09,6.56-7.14,16.24-11.58,22.28-4.91,6.55-9.99,12.94-17.03,16.93-9.39,5.41-20.11,5.66-30.87,4.84-10.95-.73-21.05-2.12-31.53-3.22-21.05-2.01-41.5,1.82-62.6,1.87-11.13.13-23.85-.08-32.52,7.73-8.88,7.93-9.85,22.54-2.8,31.78l.26.38Z"/>
</svg>