<?xml version="1.0" encoding="UTF-8"?>
<svg id="_レイヤー_1" data-name="レイヤー 1" xmlns="http://www.w3.org/2000/svg" viewBox="0 0 500 500">
  <defs>
    <style>
      .cls-1 {
        fill: #cc651e;
      }
    </style>
  </defs>
  <path class="cls-1" d="M142.16,86.19c12.37,15.81,31.23,26.79,46.98,38.6,10.92,7.83,23.26,13.96,32.83,23.05,5.5,5.62,10.03,12.41,14.19,18.96,2.5,3.6,4.91,8.58,9.66,8.82,4.42.1,10.91-1.66,16.24-.6,6.43.86,14.09,3.99,19.75,6.35,3.02,1.32,6.12,2.43,8.26,4.91,3.85,4.39.54,11.87,6.86,14.38,5.91,3.03,14.43,5.8,19.78,10.65,2.89,2.4,5.04,5.25,6.94,8.35,4.1,7.02,8.1,9.91,15.17,12.75,4.01,1.61,9.12,2.86,12.51,5.49,4.35,3.32,7.66,8.97,6.02,14.48-1.73,5.85-8.89,11.74-7.35,18.38,1.79,3.96,7.2,5.26,11.18,7.24,9.05,3.13,14.25,10.42,18.22,19.36,4.26,9.08,9.16,18.04,18.31,22.93,4.21,2.62,9.11,5.74,13.41,7.35,4.53,1.75,7.69,1.89,7.42.9-.08-.73-1.57-2.32-3-4.87-1.64-2.92-3.34-6.87-3.18-10.1.77-8.41,12.6-11.81,19.45-8.28,10.01,5.13,14.15,19.14,21.7,27.71,3.97,5.18,13.48,16.9-.32,15.42-5.12-1-12.66-5.74-16.84-7.57-.81-.37-1.86-.87-2.6-1.1-1.2-.4-1.35-.11-.91.98,2.25,4.93,4.39,11.8,4.91,17.6.99,9.85-2.22,19.95-1.48,30.07.3,9.36.02,19.39.03,29.5.01,7.79-1.88,17.27-9.65,19.86-7.81,3.07-16.71.52-25.11-.28-5.68-.39-11.56-.53-16.76-.92-23.8,0-39.28-23.79-57.87-35.45-12.59-8.01-23.87-17.63-34.61-27.92-9.87-8.87-21.25-15.79-30.17-26.25-11.61-13.21-19.52-28.21-26.89-43.43-10.77-19.03-21.61-35.83-37.34-52.17-10.28-10.56-16.49-24.48-23.7-36.77-6.13-11.91-16.51-18.94-27.12-27.5-6.63-5.84-12.4-12.47-17.73-19.38-9.22-12.07-18.54-24.51-30.41-33.66-18.07-13.27-40.73-21.78-54.47-40.26-12.55-15.59-16.9-40.11,9.53-37.2,6.65,1.03,13.06,3.97,19.52,5.82,7.66,2.43,15.69,2.04,23.86,1.21,19.18-2.25,32.95,8.13,44.47,22.23l.32.36Z"/>
</svg>