<?xml version="1.0" encoding="UTF-8"?>
<svg id="ICON" xmlns="http://www.w3.org/2000/svg" version="1.1" viewBox="0 0 300 300">
  <!-- Generator: Adobe Illustrator 29.1.0, SVG Export Plug-In . SVG Version: 2.1.0 Build 142)  -->
  <defs>
    <style>
      .st0 {
        fill: #af693c;
      }
    </style>
  </defs>
  <path class="st0" d="M103.3,209.3c-4.4,4.4-9.1,1.7-12.1-2.5-12.4-17.7-17.1-42.5-12.9-63.6,8.3-41.7,51.7-83.4,96.4-75.6,10.6,1.8,11.9,5.1,10.5,15.6-2.5,18-13.8,36.8-25.9,50-10,10.9-22.6,18.6-32.2,29.9-8.6,10.1-15.8,22.1-20,34.7-1,3.1-1.8,9.5-3.8,11.6h0Z"/>
  <path class="st0" d="M200.3,89.1c6.3-1.3,9.4,5.5,11.9,10,18.5,33.6,12.8,69.6-10.4,99.1-17.3,22-48,39.7-76.9,34.2-9.5-1.8-11.2-4-10.5-13.9,1.2-16.4,13.4-37.4,24.1-49.4,10-11.2,22.7-19.3,32.7-30.3,8.6-9.6,16.7-22.5,20.9-34.7,1.7-5,2-13.6,8.1-14.8h0Z"/>
</svg>