<?xml version="1.0" encoding="UTF-8"?>
<svg id="ICON" xmlns="http://www.w3.org/2000/svg" viewBox="0 0 300 300">
  <defs>
    <style>
      .cls-1 {
        fill: #365459;
      }
    </style>
  </defs>
  <path class="cls-1" d="M197.24,142.51c.49-4.42-1.02-8.77-4.25-12.25-3.5-3.76-8.44-5.92-13.58-5.92h-5.12l1.63-16.24h-73.67l6.87,72.69c.6,6.3,6.04,11.12,12.56,11.12h34.37c6.49,0,11.93-4.78,12.56-11.05l.7-7c14.12-6.09,26.66-19.83,27.92-31.34ZM170.22,164.87l3.32-33.03h5.87c2.9,0,5.83,1.29,7.82,3.44,1.74,1.87,2.56,4.16,2.31,6.44-.84,7.62-9.5,17.47-19.33,23.15Z"/>
</svg>