<?xml version="1.0" encoding="UTF-8"?>
<svg id="ICON" xmlns="http://www.w3.org/2000/svg" version="1.1" viewBox="0 0 300 300">
  <!-- Generator: Adobe Illustrator 29.1.0, SVG Export Plug-In . SVG Version: 2.1.0 Build 142)  -->
  <defs>
    <style>
      .st0 {
        fill: #797747;
      }
    </style>
  </defs>
  <path class="st0" d="M46.2,129.7c3.2,3.4-5.4,7.5-7.6,9.4-5.2,4.4-16.3,17.5-15.3,24.5,1.2,9,21.4,9.9,28.4,10.2,65.7,2.4,132.7-1.9,198.5,0,7.2-.9,25.2-1.3,26.2-10.8.7-5.9-8.9-18.3-12.9-22.6-2.4-2.6-9.4-6.4-6.2-10.3,2.7-3.2,9.3,1.6,11.9,3.5,10.8,7.6,17.8,17.9,20.6,30.9,5.5,25.5,1.2,36.4-25.9,39.6-73.8,1.4-147.7.2-221.6.6-19.6-2.3-38.2-4.3-35.1-29,2.2-17.5,8.6-32.3,23.8-42,3.1-2,11.8-7.4,15-4Z"/>
  <path class="st0" d="M135.8,105.4c12.2-1.9,24.1,6.3,19.8,19.5-4,12.5-20.8,14.8-29.5,21.4-3.1,2.3-5.5,6.9-8.8,9.7-12,10.2-34.7,10.4-46.6-.3-11.1-9.9-19.5-37.2-18.8-51.7.1-2.5,1.6-5.3,4.4-5.4h75.6c3,.4,4.3,3.9,3.8,6.7h0ZM129.6,135.2c7-2.1,20.1-8.5,17.7-17.5-1.2-4.6-10.9-6.2-12.4-3.6-.5.9-1.8,9.8-2.3,12-.8,3.1-1.7,6.2-3,9h0Z"/>
  <path class="st0" d="M169.1,116.8h77.5c6.3.9,3.5,12.4,2.4,16.7-10.7,40.9-73.1,39.6-82.2-2.8-.8-3.5-2.7-12.8,2.3-13.9h0Z"/>
  <path class="st0" d="M245.7,92.1c11.2-1.2,14.6,14.4,5,18.4-14.1,5.8-19.4-16.8-5-18.4Z"/>
  <path class="st0" d="M129.6,135.2c1.4-2.8,2.3-6,3-9,.6-2.3,1.8-11.1,2.3-12,1.5-2.6,11.2-1,12.4,3.6,2.4,9-10.8,15.4-17.7,17.5h0Z"/>
</svg>