<?xml version="1.0" encoding="UTF-8"?>
<svg id="ICON" xmlns="http://www.w3.org/2000/svg" viewBox="0 0 300 300">
  <defs>
    <style>
      .cls-1 {
        fill: #dfc8a6;
      }
    </style>
  </defs>
  <path class="cls-1" d="M161.42,205.37l-7.36,1.2c-2.65.72-5.45.76-8.12.11l-7.79-1.1c-6.12-1.48-11.08-7.09-12.11-13.3-.08-.47-.13-.93-.17-1.37l-7.11-94.21c-.16-2.08,1.49-3.85,3.57-3.85h55.34c2.1,0,3.75,1.79,3.57,3.88l-7.92,94.09c-.04.42-.09.86-.17,1.32-1.03,6.06-5.79,11.61-11.73,13.22Z"/>
  <path class="cls-1" d="M161.68,225.82h-22.92c6.3-8.19,8.84-15.92,5.2-22.88h12.36c-5.07,7.52-2.31,15.16,5.36,22.88Z"/>
  <path class="cls-1" d="M155.47,217.58h-11.67l-2.3-.8c-.17,0-.32-.14-.32-.32v-6.96c0-.17.14-.32.32-.32l4.01-1.27h8.56l3.74,1.06c.39.52.66.87,1.05,1.39v6.1c0,.17-3.4,1.12-3.4,1.12Z"/>
  <path class="cls-1" d="M175.31,230.42c0,5.77-11.33,7.09-25.31,7.09s-25.84-1.32-25.31-7.09c.36-3.9,11.33-7.09,25.31-7.09s25.31,3.18,25.31,7.09Z"/>
</svg>