<?xml version="1.0" encoding="UTF-8"?>
<svg id="ICON" xmlns="http://www.w3.org/2000/svg" viewBox="0 0 300 300">
  <defs>
    <style>
      .cls-1 {
        fill: #355359;
      }

      .cls-2 {
        fill: #ae683b;
      }

      .cls-3 {
        fill: #787849;
      }
    </style>
  </defs>
  <path class="cls-3" d="M173.14,76.38c1.64,1.56,4.35,5.56,5.4,7.66,1.17,2.34,3.18,10.47,4,11.29,1.63,1.62,9.89.73,12.79,1.02,8.68.86,17.97,4.65,23.19,11.89,7.32,10.15-1.14,3.85-5.35,2.36-4.63-1.65-22.5-5.73-23.19,1.81-.18,2.01,10.02,11.67,12.09,14.49,5.72,7.76,10.76,17.74,8.64,27.54-7.04-9.54-11.93-21.37-21.25-29.11-7.64-6.35-11.02-3.98-18.24,1.2-20.08,14.4-29.28,41.14-25.44,65.2l-18.65,2.99c-1.52-25.64,3.66-54.36,24.69-71.18,2.69-2.15,13.75-7.8,14.49-9.4,2.08-4.51-2.67-5.57-5.84-6.83-12.44-4.95-28.15-6.74-41.17-3.59l-.38-1.49c4.34-2.54,7.67-6,12.42-8.11,6.04-2.69,12.62-3.68,19.21-3,5.29.55,16.72,7.29,16.17-1.93-.43-7.28-6.64-13.97-11.97-18.29,6.37-.62,13.67,1.01,18.39,5.48Z"/>
  <path class="cls-2" d="M138.67,159.88c-30.16,0-54.61,16.54-54.61,36.95h109.23c0-20.41-24.45-36.95-54.61-36.95Z"/>
  <path class="cls-1" d="M77.53,211.51c-1.03,0-2.1-.05-3.21-.15-6.43-.59-10.83-3.43-14.71-5.93-2.55-1.65-4.76-3.07-7.24-3.64-.29-.05-.7-.05-1.12-.07-8.12-.4-10.01-4.55-10.16-7.97-.11-2.57.85-4.86,2.7-6.45,3.67-3.14,9.06-2.04,11.96-1.45,4.74.96,8.53,3.39,11.88,5.54,2.93,1.87,5.45,3.49,7.92,3.78,5.21.62,8.46-1.32,13.01-3.98,5.78-3.39,12.99-7.61,24.58-5.34,4.82.94,8.63,3.39,11.99,5.56,2.89,1.86,5.38,3.47,7.88,3.77,5.23.64,8.51-1.32,13.07-3.99,5.78-3.38,12.96-7.58,24.51-5.33,5.35,1.04,9.03,3.44,12.28,5.55,3.77,2.46,6.46,4.23,11.68,3.82,3.03-.25,5.32-1.8,8.22-3.76,2.43-1.64,5.18-3.5,8.63-4.63,1.87-.61,11.36-3.45,15.69.28,2.49,2.14,2.75,5.85,2.55,7.51-.85,6.57-7.94,6.97-10.27,7.1-.4.02-.76.03-1.06.08-2.42.56-4.61,1.97-7.15,3.61-3.76,2.42-8.43,5.44-15.22,5.97-10.16.79-16.38-3.01-21.38-6.07-3.57-2.18-6.38-3.9-10.3-3.93h-.1c-3.92,0-6.78,1.74-10.4,3.93-5.15,3.12-11.5,7.01-22,6.03-6.23-.58-10.74-3.39-14.72-5.86-3.67-2.29-6.58-4.1-10.42-4.1h-.09c-3.93.03-6.75,1.76-10.32,3.94-4.55,2.78-10.09,6.18-18.67,6.18ZM221.39,196.69h0ZM219.64,195.79h-.01s.01,0,.01,0Z"/>
</svg>