<?xml version="1.0" encoding="UTF-8"?>
<svg id="ICON" xmlns="http://www.w3.org/2000/svg" viewBox="0 0 300 300">
  <defs>
    <style>
      .cls-1 {
        fill: #c08840;
      }
    </style>
  </defs>
  <path class="cls-1" d="M150.92,150.61c-30.41,0-55.06,24.65-55.06,55.06h110.13c0-30.41-24.65-55.06-55.06-55.06Z"/>
  <path class="cls-1" d="M150.92,142.72c-2.17,0-3.92-1.75-3.92-3.92v-23.63c0-2.17,1.75-3.92,3.92-3.92s3.92,1.75,3.92,3.92v23.63c0,2.17-1.75,3.92-3.92,3.92Z"/>
  <path class="cls-1" d="M104.3,160.53c-.74,0-1.49-.21-2.16-.65l-19.34-12.78c-1.81-1.19-2.31-3.63-1.11-5.43,1.19-1.81,3.62-2.31,5.43-1.11l19.34,12.78c1.81,1.19,2.31,3.63,1.11,5.43-.75,1.14-2,1.76-3.27,1.76Z"/>
  <circle class="cls-1" cx="124.25" cy="144.31" r="4.45"/>
  <path class="cls-1" d="M197.71,160.53c-1.27,0-2.52-.62-3.27-1.76-1.19-1.81-.7-4.24,1.11-5.43l20.73-13.71c1.8-1.19,4.24-.7,5.43,1.11,1.19,1.81.7,4.24-1.11,5.43l-20.73,13.71c-.67.44-1.42.65-2.16.65Z"/>
  <circle class="cls-1" cx="179.15" cy="144.31" r="4.45"/>
  <path class="cls-1" d="M78.97,202.45h-19.78c-2.17,0-3.92-1.75-3.92-3.92s1.75-3.92,3.92-3.92h19.78c2.17,0,3.92,1.75,3.92,3.92s-1.75,3.92-3.92,3.92Z"/>
  <path class="cls-1" d="M239.54,202.45h-18.43c-2.17,0-3.92-1.75-3.92-3.92s1.75-3.92,3.92-3.92h18.43c2.17,0,3.92,1.75,3.92,3.92s-1.75,3.92-3.92,3.92Z"/>
  <circle class="cls-1" cx="90.2" cy="178.14" r="4.45"/>
  <circle class="cls-1" cx="211.32" cy="178.14" r="4.45"/>
</svg>