<?xml version="1.0" encoding="UTF-8"?>
<svg id="_レイヤー_5" data-name="レイヤー 5" xmlns="http://www.w3.org/2000/svg" viewBox="0 0 340.16 283.46">
  <defs>
    <style>
      .cls-1 {
        fill: #36535a;
      }

      .cls-2 {
        fill: #797647;
      }

      .cls-3 {
        fill: #3c3d3d;
      }

      .cls-4 {
        fill: #c18940;
      }

      .cls-5 {
        fill: #af673a;
      }
    </style>
  </defs>
  <path class="cls-1" d="M224.01,212.6c-.63,3.16-1.67,5.45-3.14,6.87-1.46,1.42-3.5,2.13-6.1,2.13h-1.33v-44.43h.23c-.01-.61-.01-1.22.01-1.84-.06,0-.11,0-.17,0h-17.43v.42l3.77,3.63v38.98l-3.77,3.63v.42h17.57c6.23,0,11.26-1.22,15.1-3.66,1.07-.68,2.04-1.41,2.94-2.19-2.06-3.81-4.48-7.55-6.87-11.33-.15,2.95-.42,5.41-.81,7.39Z"/>
  <g>
    <path class="cls-3" d="M34.91,195.27l-8.37-5.09c-3.67-2.18-6.21-3.72-7.6-4.6-1.39-.88-2.48-1.75-3.24-2.61-.77-.86-1.15-1.75-1.15-2.68,0-.84.3-1.5.91-1.99.6-.49,1.47-.73,2.58-.73,3.53,0,7.53,1.56,12,4.67,4.46,3.12,8.65,7.3,12.55,12.55h.42v-20.23h-.35l-4.46,2.79c-1.39-.88-3.07-1.59-5.02-2.13-1.95-.54-4.07-.8-6.35-.8-5.35,0-9.64,1.09-12.87,3.28-3.23,2.19-4.85,5.67-4.85,10.46,0,2.33.46,4.35,1.39,6.07.93,1.72,2.14,3.2,3.63,4.43,1.49,1.23,3.37,2.52,5.65,3.87l8.09,4.95,3.14,1.81c3.3,1.91,5.66,3.39,7.08,4.46,1.42,1.07,2.13,2.21,2.13,3.42,0,.31-.06.6-.16.87.52.19,1.03.38,1.5.57.73-.74,1.38-1.53,1.91-2.41,1.37-2.28,2.06-4.69,2.06-7.25,0-2.84-.86-5.29-2.58-7.36-1.72-2.07-4.4-4.17-8.02-6.31Z"/>
    <path class="cls-3" d="M61.83,175.33v.42l3,8.44-3.36,7.68c.45.64.9,1.27,1.35,1.91.29-1.04.6-2.07.96-3.1l1.6-4.53h.42l6.35,18.69h-2.16c.21.42.42.83.61,1.26h1.97l4.18,12.27-3.56,3.63v.42h18.9v-.42l-15.9-46.66h-14.37Z"/>
    <path class="cls-3" d="M119.92,196.53h-.35l-10.11-21.34-15.06.14v.42l3.84,6.86.06.11v2.42c.34,1.11.89,2,1.53,2.8v-1.87h.35l13.74,28.03h.77l11.65-28.66h.42l.07,32.92-3.77,3.63v.42h17.36l-.07-43.03,2.65-3.63v-.42h-14.58l-8.51,21.2Z"/>
    <path class="cls-3" d="M188.55,175.33h-17.37v.42l3.77,3.63-.07,33.54c-.86.99-1.79,1.68-2.77,2.13.32.47.6.95.82,1.46.62-.58,1.25-1.18,1.95-1.85v7.74h17.3v-.42l-3.7-3.63.07-43.03Z"/>
    <path class="cls-3" d="M213.68,175.33c-.02.62-.03,1.23-.01,1.84h.12c2.93,0,5.2.76,6.8,2.27,1.6,1.51,2.73,3.86,3.38,7.04.65,3.19.98,7.5.98,12.94,0,2.1-.04,4.04-.13,5.8,2.39,3.78,4.81,7.52,6.87,11.33,2.32-2.02,4.07-4.36,5.22-7.05,1.6-3.72,2.41-7.65,2.41-11.79,0-14.87-8.55-22.33-25.63-22.38Z"/>
    <path class="cls-3" d="M265.4,199.81v-.49c6.88-.84,11.86-2.49,14.92-4.95,3.07-2.46,4.6-5.32,4.6-8.58,0-3.81-1.74-6.51-5.23-8.09-3.49-1.58-8.21-2.37-14.16-2.37h-22.18v.42l3.77,3.63v1.84c2.68,8.79,4.87,19.19,13.53,24.22v-6.05h1.6l9.07,18.97-3.49,3.63v.42h19.46v-.63l-11.79-22.39-10.11.42ZM260.65,198.13v-21.55h2.79c2.74,0,4.63.9,5.65,2.68,1.02,1.79,1.53,4.22,1.53,7.29,0,3.39-.52,6.17-1.57,8.33-1.05,2.16-3.15,3.24-6.31,3.24h-2.09Z"/>
    <path class="cls-3" d="M316.65,175.33h-14.37v.42l3,8.44-4.22,9.65c.56.72,1.12,1.43,1.68,2.13.4-1.78.88-3.55,1.49-5.3l1.6-4.53h.42l6.35,18.69h-3.78c.2.41.37.83.55,1.26h3.65l4.18,12.27-3.56,3.63v.42h18.9v-.42l-15.9-46.66Z"/>
  </g>
  <g>
    <path class="cls-4" d="M103.08,209.15c-2.16-4.97-3.24-11.11-3.24-18.41v-2.8c-.65-.8-1.19-1.69-1.53-2.8v37.26h14.71v-.35c-4.46-3.63-7.78-7.93-9.94-12.9Z"/>
    <path class="cls-4" d="M260.65,218.08v-12.64c-8.66-5.04-10.85-15.44-13.53-24.22l-.07,36.87-3.63,3.91v.42h20.85v-.42l-3.63-3.91Z"/>
    <path class="cls-4" d="M250,54.44c3-10.27-10.02,4.23-12.94,4.51-2.69,1.19-5.6.75-8.47.2-22.12-4.2-44.33-9.95-66.58-12.92,3.95,2.97,7.26,6.57,10.28,10.39l.23.16c3.85,2.48,8.14,6.17,10.43,10.58.75,1.44,1.22,3.26,1.46,5.15,1.5,1.74,3.08,3.37,4.77,4.84,4.25-8.11,29.55-10.32,37.97-10.52.47-.01.7.54.39.89-3.15,3.42-14.75,15.56-22,16.77-.24.04-.41.03-.62.05-2.38,2.38-2.4,2.4-4.81,4.81,5.97,2.66,11.2,6.43,15.92,10.86.25-.44.5-.88.79-1.3,6.54-10.94,22.75-19.36,28.1-31.66,1.67-4.15,3.59-8.69,5.09-12.8Z"/>
  </g>
  <g>
    <path class="cls-2" d="M36.17,219.89c-2.23,0-5.03-.64-8.4-1.92-3.37-1.28-6.87-3.47-10.5-6.59-3.63-3.11-6.72-7.23-9.28-12.34l-.49.07,1.19,21.48c1.16.19,2.45.43,3.87.73,1.42.3,2.43.52,3.03.66,2.6.6,4.75,1.06,6.45,1.36,1.7.3,3.5.45,5.4.45,3.86,0,7.15-.7,9.87-2.09,1.08-.55,2.02-1.19,2.88-1.89-.32-.2-.64-.43-.94-.69-.63.51-1.66.76-3.09.76Z"/>
    <path class="cls-2" d="M301.59,206.08h7.79c-.18-.42-.35-.85-.55-1.26h-7.24c.09-2.98.5-5.93,1.16-8.85-.57-.71-1.13-1.42-1.68-2.13l-12.31,28.14v.42h17.85v-.42c-1.53-1.77-2.73-4.02-3.59-6.76-.86-2.74-1.34-5.79-1.43-9.14Z"/>
    <path class="cls-2" d="M204.92,84.52c-1.38.13-2.19-.13-2.74-.54-.95-.73-1.24-1.85-3-1.81-.67-.12-1.52-.04-2.42.08-1.58.21-3.34.59-4.87.59-1.96,0-3.52-1.74-3.29-3.68.08-.63.28-1.24.58-1.81-1.69-1.47-3.26-3.1-4.77-4.84.46,3.65.04,7.58-1.13,9.72-1.31,2.15-3.51,5.34-5.76,6.31-1.81.7-2.74.61-2.7-1.2.14-2.42.51-5.39.19-7.93-.99-8.56-3.56-17.68-10.68-22.91-1.47-1.33-7.36-6.04-2.1-5.3,3.39.62,7.04,3.36,9.92,5.31l.15.1c-3.02-3.82-6.33-7.42-10.28-10.39-.12-.02-.25-.04-.37-.05-2.28-.27-4.92-.62-6.58-2.03l-.27-.23c-1.71-1.55-2.31-4.08-2.74-6.34-1.72-8.96-2.39-18.35-5.23-26.91-.65-2.12-3.7-7.32-4.77-2.76-1.39,5.94-1.05,21.55-7.55,23.43-3.55,1.02-7.73-8.01-8.39-5.56-1.26,4.62-2.36,12.85-3.01,17.76-1.47,11-13.18,12.41-11.13,25.04.12.77.24,1.54.36,2.3,19.99,13.05,42.88,24.12,58.65,45.15.17.34.1.62-.12.86,4.26,1.35,7.4,7.09,5.23,10.83-.1.17-.2.29-.3.43-2.05,2.8-4.13.2-5.81-1.99-.39-.51-.76-.99-1.1-1.37-1.97-1.81-3.71-1.87-5.08-.89h0c-4.86,3.49-4.95,20.23,6.78,19.52.45-.03.89-.09,1.32-.17,6.95-1.38,11.03-10.36,13.2-16.82,2.59-7.36,4.91-18.71,11.74-20.34,5.53-1.98,12.82,4.15,8.09,9.16-2.41,2.17-7.27-.59-9.54,2.02-4.18,4.85.98,14.4,7.22,11.84,10.26-5.04,8.28-19.83,13.43-28.9-4.72-4.44-9.95-8.21-15.92-10.86,2.41-2.41,2.43-2.43,4.81-4.81Z"/>
  </g>
  <g>
    <path class="cls-5" d="M69.99,204.83h-8.86c.11-3.73.68-7.41,1.69-11.05-.45-.63-.9-1.27-1.35-1.91l-13.17,30.11v.42h17.85v-.42c-1.53-1.77-2.73-4.02-3.59-6.76-.86-2.74-1.34-5.79-1.43-9.14h9.47c-.2-.42-.4-.84-.61-1.26Z"/>
    <path class="cls-5" d="M172.11,215.05c-.83.38-1.69.59-2.6.59-1.86,0-3.21-.78-4.04-2.34-.84-1.56-1.25-3.8-1.25-6.73v-31.24h-17.3v.42l3.7,3.63-.07,29.64c0,4.88,1.13,8.51,3.38,10.88,2.25,2.37,5.4,3.56,9.45,3.56.93,0,2.21-.63,3.84-1.88,1.3-1.01,3.23-2.71,5.72-5.06-.22-.51-.5-.99-.82-1.46Z"/>
    <path class="cls-5" d="M157.83,121.28h0c.33-.37.64-.76.98-1.11.72-.74,1.53-1.41,2.4-1.97,2.78-1.81,6.2-2.59,9.43-1.41.08.02.15.07.23.09.22-.23.29-.51.12-.86-15.77-21.03-38.66-32.1-58.65-45.15,1.38,8.79,2.46,17.62,1.51,26.36-.13,6.75-5.46,19.3,5.15,19.91,6.27.62,12.76-.52,18.99-.99,5.57-.09,1.31,2.05-1.5,2.6-7.6,1.55-16.77,1.89-24.44.93-8.53-1.14-31.21-7.6-18.78,7.87,2.45,3.05,4.42,5.94,7.2,8.46,3.42,3,6.26,7.18,9.52,10.49,6.34,6.13,9.07,5.45,10.43-1.99,1.76-6.63,7.43-14.11,13.84-16.16,5.99-2.25,10.65,4.45,8.66,9.92-.46,1.44-1.38,2.82-2.73,3.31-2.88,1.17-5.13-4.61-7.91-4.3-3.12.55-4.61,4.29-4.93,7.17-.93,7.77,6.42,12.89,12.86,8.96,2.02-1.08,3.79-2.69,5.16-4.51,1.95-2.5,3.04-6.08,3.83-9.23,1.38-6.02,4.2-13.29,8.65-18.38Z"/>
  </g>
</svg>