<?xml version="1.0" encoding="UTF-8"?>
<svg id="_レイヤー_5" data-name="レイヤー 5" xmlns="http://www.w3.org/2000/svg" viewBox="0 0 425.2 85.04">
  <defs>
    <style>
      .cls-1 {
        fill: #36535a;
      }

      .cls-2 {
        fill: #797647;
      }

      .cls-3 {
        fill: #b0683c;
      }

      .cls-4 {
        fill: #3c3d3d;
      }

      .cls-5 {
        fill: #787849;
      }

      .cls-6 {
        fill: #c18940;
      }

      .cls-7 {
        fill: #c38c42;
      }

      .cls-8 {
        fill: #af673a;
      }
    </style>
  </defs>
  <path class="cls-5" d="M81.83,63.35c-.63.51-1.66.76-3.09.76-2.23,0-5.03-.64-8.4-1.92-3.37-1.28-6.87-3.47-10.5-6.59-3.63-3.11-6.72-7.23-9.28-12.34l-.49.07,1.19,21.48c1.16.19,2.45.43,3.87.73,1.42.3,2.43.52,3.03.66,2.6.6,4.75,1.06,6.45,1.36,1.7.3,3.5.45,5.4.45,3.86,0,7.15-.7,9.87-2.09,1.08-.55,2.02-1.19,2.88-1.89-.32-.2-.64-.43-.94-.69Z"/>
  <path class="cls-4" d="M82.78,61.39c0,.31-.06.6-.16.87.52.19,1.03.38,1.5.57.73-.74,1.38-1.53,1.91-2.41,1.37-2.28,2.06-4.69,2.06-7.25,0-2.84-.86-5.29-2.58-7.36-1.72-2.07-4.39-4.17-8.02-6.31l-8.37-5.09c-3.67-2.18-6.21-3.72-7.6-4.6-1.39-.88-2.48-1.75-3.24-2.62-.77-.86-1.15-1.75-1.15-2.68,0-.84.3-1.5.91-1.99.6-.49,1.46-.73,2.58-.73,3.53,0,7.53,1.56,12,4.67,4.46,3.12,8.65,7.3,12.55,12.55h.42v-20.23h-.35l-4.46,2.79c-1.39-.88-3.07-1.59-5.02-2.13-1.95-.54-4.07-.8-6.35-.8-5.35,0-9.64,1.09-12.87,3.28-3.23,2.19-4.85,5.67-4.85,10.46,0,2.33.46,4.35,1.39,6.07.93,1.72,2.14,3.2,3.63,4.43,1.49,1.23,3.37,2.52,5.65,3.87l8.09,4.95,3.14,1.81c3.3,1.91,5.66,3.39,7.08,4.46,1.42,1.07,2.13,2.21,2.13,3.42Z"/>
  <path class="cls-4" d="M118.77,19.55h-14.37v.42l3,8.44-3.36,7.68c.45.64.9,1.27,1.35,1.91.29-1.04.6-2.07.96-3.1l1.6-4.53h.42l6.35,18.69h-2.16c.21.42.42.83.61,1.26h1.97l4.18,12.27-3.56,3.63v.42h18.9v-.42l-15.9-46.66Z"/>
  <path class="cls-3" d="M103.7,49.05c.11-3.73.68-7.41,1.69-11.05-.45-.63-.9-1.27-1.35-1.91l-13.17,30.11v.42h17.85v-.42c-1.53-1.77-2.73-4.02-3.59-6.76-.86-2.74-1.34-5.79-1.43-9.14h9.47c-.2-.42-.4-.84-.61-1.26h-8.86Z"/>
  <path class="cls-6" d="M145.65,53.37c-2.16-4.97-3.24-11.11-3.24-18.41v-2.8c-.65-.8-1.19-1.69-1.53-2.8v37.26h14.71v-.35c-4.46-3.63-7.78-7.93-9.94-12.9Z"/>
  <path class="cls-4" d="M185.58,19.55h-14.58l-8.51,21.2h-.35l-10.11-21.34-15.06.14v.42l3.84,6.86c3.03.11-.25,1.84,1.48,3.57-1.73-1.73,1.54-3.46-1.48-3.57l.06.11v2.42c.34,1.11.89,2,1.53,2.8v-1.87h.35l13.74,28.03h.77l11.65-28.66h.42l.07,32.92-3.77,3.63v.42h17.37l-.07-43.03,2.65-3.63v-.42Z"/>
  <path class="cls-8" d="M212.08,59.86c-1.86,0-3.21-.78-4.05-2.34-.84-1.56-1.25-3.8-1.25-6.73v-31.24h-17.3v.42l3.7,3.63-.07,29.64c0,4.88,1.13,8.51,3.38,10.88,2.25,2.37,5.4,3.56,9.45,3.56.93,0,2.21-.63,3.84-1.88,1.3-1.01,3.23-2.71,5.72-5.06-.22-.51-.5-.99-.82-1.46-.83.38-1.69.59-2.6.59Z"/>
  <path class="cls-4" d="M231.05,62.57l.07-43.03h-17.37v.42l3.77,3.63-.07,33.54c-.86.99-1.79,1.68-2.77,2.13.32.47.6.95.82,1.46.62-.58,1.25-1.18,1.95-1.85v7.74h17.3v-.42l-3.7-3.63Z"/>
  <path class="cls-4" d="M279.48,53.72c1.6-3.72,2.41-7.65,2.41-11.79,0-14.87-8.55-22.33-25.63-22.38-.02.62-.03,1.23-.01,1.84h.12c2.93,0,5.2.76,6.8,2.27,1.6,1.51,2.73,3.86,3.38,7.04.65,3.19.98,7.5.98,12.94,0,2.1-.04,4.04-.13,5.8,2.39,3.78,4.81,7.52,6.87,11.33,2.32-2.02,4.07-4.36,5.22-7.05Z"/>
  <path class="cls-1" d="M266.58,56.82c-.63,3.16-1.67,5.45-3.14,6.87-1.46,1.42-3.5,2.13-6.1,2.13h-1.33V21.39h.23c-.01-.61-.01-1.22.01-1.84-.06,0-.11,0-.17,0h-17.43v.42l3.77,3.63v38.98l-3.77,3.63v.42h17.57c6.23,0,11.26-1.22,15.1-3.66,1.07-.68,2.04-1.41,2.94-2.19-2.06-3.81-4.48-7.55-6.87-11.33-.15,2.95-.42,5.41-.81,7.39Z"/>
  <path class="cls-7" d="M289.69,25.43l-.07,36.87-3.63,3.91v.42h20.85v-.42l-3.63-3.91v-12.64c-8.66-5.04-10.85-15.44-13.53-24.22Z"/>
  <path class="cls-4" d="M318.08,43.61l-10.11.42v-.49c6.88-.84,11.86-2.49,14.92-4.95,3.07-2.46,4.6-5.32,4.6-8.58,0-3.81-1.74-6.51-5.23-8.09-3.49-1.58-8.21-2.37-14.16-2.37h-22.18v.42l3.77,3.63v1.84c2.68,8.79,4.87,19.19,13.53,24.22v-6.05h1.6l9.07,18.97-3.49,3.63v.42h19.46v-.63l-11.79-22.39ZM303.22,42.35v-21.55h2.79c2.74,0,4.63.9,5.65,2.68,1.02,1.79,1.53,4.22,1.53,7.29,0,3.39-.52,6.17-1.57,8.33-1.05,2.16-3.15,3.24-6.31,3.24h-2.09Z"/>
  <path class="cls-4" d="M359.22,19.55h-14.37v.42l3,8.44-4.22,9.65c.56.72,1.12,1.43,1.68,2.13.4-1.78.88-3.55,1.49-5.3l1.6-4.53h.42l6.35,18.69h-3.78c.2.41.37.83.55,1.26h3.65l4.18,12.27-3.56,3.63v.42h18.9v-.42l-15.9-46.66Z"/>
  <path class="cls-2" d="M344.16,49.05c.09-2.98.5-5.93,1.16-8.85-.57-.71-1.13-1.42-1.68-2.13l-12.31,28.14v.42h17.85v-.42c-1.53-1.77-2.73-4.02-3.59-6.76-.86-2.74-1.34-5.79-1.43-9.14h7.79c-.18-.42-.35-.85-.55-1.26h-7.24Z"/>
</svg>