<?xml version="1.0" encoding="UTF-8"?>
<svg id="_レイヤー_5" xmlns="http://www.w3.org/2000/svg" version="1.1" viewBox="0 0 283.5 283.5">
  <!-- Generator: Adobe Illustrator 29.1.0, SVG Export Plug-In . SVG Version: 2.1.0 Build 142)  -->
  <defs>
    <style>
      .st0 {
        fill: #797647;
      }

      .st1 {
        fill: #b05c3b;
      }

      .st2 {
        fill: #c18940;
      }
    </style>
  </defs>
  <path class="st2" d="M267,110.4c2.8-6.9,6-14.5,8.5-21.4,5-17.2-16.8,7.1-21.6,7.5-4.5,2-9.4,1.3-14.2.3-37-7-74.2-16.6-111.4-21.6,6.6,5,12.1,11,17.2,17.4l.4.3c6.4,4.1,13.6,10.3,17.4,17.7,1.3,2.4,2,5.5,2.4,8.6,2.5,2.9,5.2,5.6,8,8.1,7.1-13.6,49.4-17.3,63.5-17.6.8,0,1.2.9.7,1.5-5.3,5.7-24.7,26-36.8,28.1-.4,0-.7,0-1,0-4,4-4,4-8,8,10,4.4,18.7,10.8,26.6,18.2.4-.7.8-1.5,1.3-2.2,10.9-18.3,38.1-32.4,47-53h0Z"/>
  <path class="st0" d="M192,147.3c4-4,4.1-4.1,8-8-2.3.2-3.7-.2-4.6-.9h0c-1.6-1.2-2.1-3.1-5-3-1.1-.2-2.5,0-4,.1-2.6.4-5.6,1-8.1,1s-5.9-2.9-5.5-6.2c.1-1.1.5-2.1,1-3-2.8-2.5-5.5-5.2-8-8.1.8,6.1,0,12.7-1.9,16.3-2.2,3.6-5.9,8.9-9.6,10.6-3,1.2-4.6,1-4.5-2,.2-4,.9-9,.3-13.3-1.7-14.3-6-29.6-17.9-38.3-2.5-2.2-12.3-10.1-3.5-8.9,5.7,1,11.8,5.6,16.6,8.9l.3.2c-5.1-6.4-10.6-12.4-17.2-17.4-.2,0-.4,0-.6,0-3.8-.5-8.2-1-11-3.4l-.5-.4c-2.9-2.6-3.9-6.8-4.6-10.6-2.9-15-4-30.7-8.7-45-1.1-3.5-6.2-12.2-8-4.6-2.3,9.9-1.8,36.1-12.6,39.2-5.9,1.7-12.9-13.4-14-9.3-2.1,7.7-3.9,21.5-5,29.7-2.5,18.4-22,20.8-18.6,41.9.2,1.3.4,2.6.6,3.8,33.4,21.8,71.7,40.4,98.1,75.5.3.6.2,1-.2,1.4,7.1,2.3,12.4,11.9,8.7,18.1-.2.3-.3.5-.5.7-3.4,4.7-6.9.3-9.7-3.3-.7-.9-1.3-1.7-1.8-2.3-3.3-3-6.2-3.1-8.5-1.5h0c-8.1,5.8-8.3,33.8,11.3,32.7.8,0,1.5-.2,2.2-.3,11.6-2.3,18.5-17.3,22.1-28.1,4.3-12.3,8.2-31.3,19.6-34,9.3-3.3,21.4,6.9,13.5,15.3-4,3.6-12.2-1-16,3.4-7,8.1,1.6,24.1,12.1,19.8,17.2-8.4,13.9-33.2,22.5-48.3-7.9-7.4-16.6-13.7-26.6-18.2h0ZM185.3,152.1c-14,8.1-29.9,15.7-44.9,21.5-1.4.5-3.6,1.3-4.7.5-1.1-1.6-.1-3.5.7-5.2,10.2-18.3,54.8-22.8,54.8-22.8,1.9.7-3.9,4.5-5.9,5.9h0Z"/>
  <path class="st1" d="M143.3,192c-26.4-35.2-64.7-53.7-98.1-75.5,2.3,14.7,4.1,29.5,2.5,44.1-.2,11.3-9.1,32.3,8.6,33.3,10.5,1,21.3-.9,31.8-1.7,9.3-.2,2.2,3.4-2.5,4.3-12.7,2.6-28.1,3.2-40.9,1.6-14.3-1.9-52.2-12.7-31.4,13.2,4.1,5.1,7.4,9.9,12,14.2,5.7,5,10.5,12,15.9,17.5,10.6,10.3,15.2,9.1,17.4-3.3,2.9-11.1,12.4-23.6,23.2-27,10-3.8,17.8,7.4,14.5,16.6-.8,2.4-2.3,4.7-4.6,5.5-4.8,2-8.6-7.7-13.2-7.2-5.2.9-7.7,7.2-8.2,12-1.6,13,10.7,21.6,21.5,15,3.4-1.8,6.3-4.5,8.6-7.5,3.3-4.2,5.1-10.2,6.4-15.4,2.3-10.1,7-22.2,14.5-30.7h0c.6-.6,1.1-1.3,1.6-1.9,1.2-1.2,2.6-2.4,4-3.3,4.7-3,10.4-4.3,15.8-2.4.1,0,.3.1.4.2.4-.4.5-.9.2-1.4h0Z"/>
</svg>